<?xml version="1.0" encoding="utf-8"?>
<!-- Generator: Adobe Illustrator 25.2.0, SVG Export Plug-In . SVG Version: 6.00 Build 0)  -->
<!DOCTYPE svg PUBLIC "-//W3C//DTD SVG 1.1//EN" "http://www.w3.org/Graphics/SVG/1.1/DTD/svg11.dtd" [
	<!ENTITY ns_extend "http://ns.adobe.com/Extensibility/1.0/">
	<!ENTITY ns_ai "http://ns.adobe.com/AdobeIllustrator/10.0/">
	<!ENTITY ns_graphs "http://ns.adobe.com/Graphs/1.0/">
	<!ENTITY ns_vars "http://ns.adobe.com/Variables/1.0/">
	<!ENTITY ns_imrep "http://ns.adobe.com/ImageReplacement/1.0/">
	<!ENTITY ns_sfw "http://ns.adobe.com/SaveForWeb/1.0/">
	<!ENTITY ns_custom "http://ns.adobe.com/GenericCustomNamespace/1.0/">
	<!ENTITY ns_adobe_xpath "http://ns.adobe.com/XPath/1.0/">
]>
<svg version="1.1" id="Capa_7_xA0_Imagen_1_" xmlns:x="&ns_extend;" xmlns:i="&ns_ai;" xmlns:graph="&ns_graphs;"
	 xmlns="http://www.w3.org/2000/svg" xmlns:xlink="http://www.w3.org/1999/xlink" x="0px" y="0px" viewBox="0 0 420 280"
	 style="enable-background:new 0 0 420 280;" xml:space="preserve">
<metadata><?xpacket begin="﻿" id="W5M0MpCehiHzreSzNTczkc9d"?>
<x:xmpmeta xmlns:x="adobe:ns:meta/" x:xmptk="Adobe XMP Core 6.0-c004 79.164570, 2020/11/18-15:51:46        ">
   <rdf:RDF xmlns:rdf="http://www.w3.org/1999/02/22-rdf-syntax-ns#">
      <rdf:Description rdf:about=""
            xmlns:xmp="http://ns.adobe.com/xap/1.0/"
            xmlns:xmpGImg="http://ns.adobe.com/xap/1.0/g/img/"
            xmlns:dc="http://purl.org/dc/elements/1.1/"
            xmlns:photoshop="http://ns.adobe.com/photoshop/1.0/"
            xmlns:xmpMM="http://ns.adobe.com/xap/1.0/mm/"
            xmlns:stEvt="http://ns.adobe.com/xap/1.0/sType/ResourceEvent#"
            xmlns:stRef="http://ns.adobe.com/xap/1.0/sType/ResourceRef#"
            xmlns:tiff="http://ns.adobe.com/tiff/1.0/"
            xmlns:exif="http://ns.adobe.com/exif/1.0/"
            xmlns:xmpTPg="http://ns.adobe.com/xap/1.0/t/pg/"
            xmlns:stDim="http://ns.adobe.com/xap/1.0/sType/Dimensions#"
            xmlns:xmpG="http://ns.adobe.com/xap/1.0/g/">
         <xmp:CreatorTool>Adobe Illustrator 25.2 (Windows)</xmp:CreatorTool>
         <xmp:CreateDate>2021-04-13T16:08:10+02:00</xmp:CreateDate>
         <xmp:ModifyDate>2021-04-13T16:08:10+02:00</xmp:ModifyDate>
         <xmp:MetadataDate>2021-04-13T16:08:10+02:00</xmp:MetadataDate>
         <xmp:Thumbnails>
            <rdf:Alt>
               <rdf:li rdf:parseType="Resource">
                  <xmpGImg:width>256</xmpGImg:width>
                  <xmpGImg:height>68</xmpGImg:height>
                  <xmpGImg:format>JPEG</xmpGImg:format>
                  <xmpGImg:image>/9j/4AAQSkZJRgABAgEASABIAAD/7QAsUGhvdG9zaG9wIDMuMAA4QklNA+0AAAAAABAASAAAAAEA&#xA;AQBIAAAAAQAB/+4ADkFkb2JlAGTAAAAAAf/bAIQABgQEBAUEBgUFBgkGBQYJCwgGBggLDAoKCwoK&#xA;DBAMDAwMDAwQDA4PEA8ODBMTFBQTExwbGxscHx8fHx8fHx8fHwEHBwcNDA0YEBAYGhURFRofHx8f&#xA;Hx8fHx8fHx8fHx8fHx8fHx8fHx8fHx8fHx8fHx8fHx8fHx8fHx8fHx8fHx8f/8AAEQgARAEAAwER&#xA;AAIRAQMRAf/EAaIAAAAHAQEBAQEAAAAAAAAAAAQFAwIGAQAHCAkKCwEAAgIDAQEBAQEAAAAAAAAA&#xA;AQACAwQFBgcICQoLEAACAQMDAgQCBgcDBAIGAnMBAgMRBAAFIRIxQVEGE2EicYEUMpGhBxWxQiPB&#xA;UtHhMxZi8CRygvElQzRTkqKyY3PCNUQnk6OzNhdUZHTD0uIIJoMJChgZhJRFRqS0VtNVKBry4/PE&#xA;1OT0ZXWFlaW1xdXl9WZ2hpamtsbW5vY3R1dnd4eXp7fH1+f3OEhYaHiImKi4yNjo+Ck5SVlpeYmZ&#xA;qbnJ2en5KjpKWmp6ipqqusra6voRAAICAQIDBQUEBQYECAMDbQEAAhEDBCESMUEFURNhIgZxgZEy&#xA;obHwFMHR4SNCFVJicvEzJDRDghaSUyWiY7LCB3PSNeJEgxdUkwgJChgZJjZFGidkdFU38qOzwygp&#xA;0+PzhJSktMTU5PRldYWVpbXF1eX1RlZmdoaWprbG1ub2R1dnd4eXp7fH1+f3OEhYaHiImKi4yNjo&#xA;+DlJWWl5iZmpucnZ6fkqOkpaanqKmqq6ytrq+v/aAAwDAQACEQMRAD8Al+ufkx+fd7qt7c235p3C&#xA;W8jM1qnGSA8a/Arx25SJdupRfoxV8yap+bX5y6Zqd3pt15u1QXVlNJbThbuUgSROUahr4rir6l8i&#xA;flZ5o17yDo2tX/5keZ49W1exgvgYLxRbx/WYllRfTeNnbiHof3gr7Yq8g/NWf/nIf8pdXtrqbzjf&#xA;ano9zIVsNTZzLEzL8XpzwTeqiScd6GoIrQmhoq9x/wCcefzxP5k6Pc2eqRJb+ZdKVDdiIUinickL&#xA;PGpJ4moo69AaEbGgVevYq7FXYq7FXxl/zlvcefh+Z9nGGvV0dIrd/Lwg9QR+uBWRo+H+7xLX/KpT&#xA;tTFX1N+WUvmqbyBoUvmxWTzC9oh1BXHGTmfs+ou3GQpx5js1cVZPirsVdirsVePf85B/mJ+aXk7Q&#xA;ZrzypokbabGq/W/MUjpMbcuQo42h3+0R8bcl8Rir52/5x080a9rn/OQmh6hrV9NqV9eJepJc3Ls7&#xA;ACymcBa9FHGgUbDtir7qxV2KuxV2KuxV2KuxV2KuxV2KuxV2KuxV2KuxV2KvzL/ML/lPvMv/AG1b&#xA;7/qJfFX6FflP/wCSs8m/9sPTf+oOPFWH/wDOVB0wfklrn11VaTnafUa05C4NzHQpXvw51/ya4q+d&#xA;f+cPJ7mP84AkRYRzaddJcAdCgKOOX+zVcVfcmKuxV2KuxV2KuxV2KuxV2KuxVj35iqrfl/5mVgGU&#xA;6TfVB3H+8z4q+HP+cZZ/Q/PHyu/HlWS6jpWn95ZTpX6OVcVfoJirsVdiqWeZfMmjeWtDvNc1m4W1&#xA;06xjMk8rfcFUftMxoqqOp2xV5v8AkH+cWqfmZP5purm2jtNP0+6hXSoFH7xYJVeglap5P+7qSO52&#xA;2xV63irsVdirsVdirsVdirsVdirsVdir8y/zC/5T7zL/ANtW+/6iXxV9pflP+df5XxflT5eF95is&#xA;tPudL062sbyyupkjuVltIVhcrBUyOrFeSlQaj3qAq8C/P/8AOef81db0/wAreULa4uNFtp62saxt&#xA;619dsCiyCIDkFVSRGp33JIHQKvcP+cbPyJuvy/sbjXdf4nzNqkQhNuhDLaW/IOYuY2Z3ZVL022AH&#xA;clV7Jq+oPp2mXN8lpPftbRmQWdoqvPLT9iNWZAWPzxV8febv+cwPzEbzRGNL0+LRdM0+4IuNLuI/&#xA;UuJghKvHcu4BQ+yBSp7nFXr35p/85DXelQPp3kDRrjzFq/oxTT38UEk9naJcRLNGXMQb1JDG4bjU&#xA;AV3J6YqxP/nGf86fzO82eadV0bzG/wClLG1tJr55/QSKeGUSoqwqY/TSjc2ojLXbYgDFVXz/AP8A&#xA;OYraLdzabo/lO7hvo9uetg2jKQSKm2Tk5FRtV1xV6r+Rn5g615+/L+38xazb29tey3E8JS0WRISs&#xA;T8VZRI8rex+Lriq/86fzVs/y28nPrDQi71K5kFtpdmxIWSZgWLORuERVLN47DatcVeK/lVff85A/&#xA;m+15rk/nB/Lfl6CUwxtaW0fxygBjHCg4MVQMOTvId9t96KpV+dcX/OQX5Zpb6iPPN5q2gXcvoR3q&#xA;hYZI5SpZY5Y/jpyVTxZWINO22KrPyr8jfnb+Yug23m22/Mm9sglxJAsMtxdSMhjIDHgriM8gehG/&#xA;fFX0t5ugvbf8rdagvrj63ew6HdR3V3xCerKtoweTiNl5tU0xV8E/kz5l0zyx+Z2g67qknpafYzO9&#xA;zIFZyEaF0qFQMxPxbADFX0D+Y3n7/nJnzHG935N8sahoHlqnKAiKJtSmTs8iMWlSvUJGtR/M2KvH&#xA;vLv/ADkZ+cvlfWP9M1e41BYJCl5peqgyglTRkYuBLGw/yWFD92Kvunyl5ksvM3ljS/MFkCttqltH&#xA;cxxtuyeooJRvdGqp+WKvjr/nKzz9511rzQuh3+m3mjeWbB2/RsNxG8YvXX4WuqkcXG9EAJ4j3JxV&#xA;hn5Qa9+c2kNqq/ltbXc5u1iXU2tbNbtVMfP0SzPHIqN8b08d/DFX0f8AkJ5a/wCcgk8zy61+YWo3&#xA;aaK1vJ6WnXdykjSTuyhD6CFhGqjkd+JrTbFXmv8AzkPo35tfl1rSalpvnTXZ/K2rSuLNjqN5ytpd&#xA;3+rOfVNfh3Ru4B8KlVkP/OIuo+f/ADPr2saxrHmzU73TNKjihbTLu5kukmkueZVj65k4CP061ShJ&#xA;70qCq+gvzB0DzRrOgSxeV9dm0HW4Qz2lwixvFI9No51kST4G/mXdeu/Qqvlb8pvOX/OSH5keYX0z&#xA;TfNcttY2lH1PVHgtnigQmgpxj+ORqHgoO9OoAJxV9kWFvLbWNvbzTtdTQxJHJcyAB5WVQDIwUAVY&#xA;ippiqvirsVdirsVdir8y/wAwv+U+8y/9tW+/6iXxV9j/AJZf84//AJSX/wCWXly41Ly/Fe3mp6Za&#xA;3t5dyvKJmluoVmejo6FQC9FC02xVgH5q/wDOJ8+iQyeZvyzu7pbixrcHSDIxuF4b8rOdeL8lG4Rq&#xA;sezVouKo7/nHj/nJrUdY1S08nedpBNeXREOk6zQK0kp2WG4A2LP0RwNzsak1xV9PYq+IP+cyNKsL&#xA;L82oJ7WJY5dR0q3urwr+3MJpoOZ/55woPoxV9Xfk9oljov5X+V7OzhSENptrPP6YoHnnhWSaQ+Jd&#xA;2JqcVZgqIrMyqAzmrkChJApU/QMVfLv/ADnHbwfUvKNx6a+v6l7H6tPi4cYTxr4VxVnn/OI10s/5&#xA;MWUQpW1vLuJqGu5l9Xfw2kxV55/znHFfk+UJaMbBfry8h9kTN6Bofcqu1fA++KvVf+cXrjT5fyS8&#xA;vrZlSYfrMd0q9Vm+tSMwb3IYH5EYqkv/ADmBqdpa/lC9pMVM+oX9tFbKacqxkzMyj2WMgn398VSX&#xA;/nCePUF8g648oYWL6n/o1ehkEEYlK/RwxV7J+Z0/1f8ALbzZPx5ejo2oSca0rxtZDSuKvhr/AJxx&#xA;0aDV/wA6fLNtcRiWCKaW6dWHJQbWCSeMkf8AGSNcVfoVir4v/wCc0NC0+x/MHS9TtYlim1SwrecB&#xA;T1JIJGQSN4sUKr/sRir6H/5xwkaT8k/KrM3Ii3lWp32W5lUD6AKYqw7/AJzOitm/KmzkkC+qmr24&#xA;gY/aqYJ+QX5rXbFUv/5wlA/wDrp7/pXr/wBG0WKvorFXnv5/eUF81flPr1gqc7u1gOoWNBVvWtP3&#xA;tF93RWT/AGWKvln/AJxM89N5d/M6PSJ5OOn+ZY/qUgJoBcpV7Zvny5Rj/XxV9S/n/wCdf8IflVrW&#xA;oRSenf3cf6P08g0b17oFOSn+aOPnJ/scVSv8stE0b8nvyUivtZRoJIbf9J680aF5jcThf3fEdTGC&#xA;sQ7bVPc4qnX5f/nDovm/UP0S+nX2h609oNTttP1KL02nsHYLHcxOpZGU8hUVrWvWlcVZ7irsVdir&#xA;sVdir8y/zC/5T7zL/wBtW+/6iXxV+hX5T/8AkrPJv/bD03/qDjxVlWKvzV1t4ovzSv30olYo9cma&#xA;wMXUKLsmLhx9qUpir9KsVfEf/OZksj/m1aqxqsWkWyINtgZp2p97HFX15+Xn/KAeWf8AtlWP/UMm&#xA;KsgxV8wf85x/8cryj/xnvf8AiEOKsi/5wskd/wAqtSVjUR63cKg8B9VtWp97HFWaf85CX3kC2/LP&#xA;UV86R+taTDhp8EZUXTXlD6RtiwPF16lqUC1qCKgqvCP+ccvLf/OQuiab+lvLNlZ/4Z1ek31TWJTH&#xA;HNQcRPEsdZkJAoGpRhTYihxV6D5r/IP8xfzM1+01D8xfMFjZaXYgra6RoaSyKquQXpLchKSOFHJy&#xA;rdNhTFXtXlbyvoflbQbTQtEtltNNsk4QxLuSTuzux3ZmO7MepxVKvzY/8lZ5y/7Yepf9QcmKvjz/&#xA;AJxHhST86LF2rWGzu3SniYuG/wBDHFX3bir5A/5ze/5Sry1/zAzf8nsVe1/84ugj8ivLIIof9NO/&#xA;gdQuCMVYp/zmr/5KzSv+25b/APUHd4qhP+cJf+UB13/tqn/qGixV9FYq0yqylWAZWFGU7gg9jir8&#xA;2/zA0G88h/mdqum2paCXRtQM2nSdGEYYT2r/AD9NkOKvpCfzZpv57fmL5K0nTQzeXdBtxr3mWIqy&#xA;qLv4VS1bkAH4vRKj9l2odsVeg/8AOSuo3Ef5W3ei2EbXGseZbm20nTLWPd5JZpQ7KB/xjjbfpirz&#xA;X8h/MOoXOseavNvnu6b9P+QdIXRxpxAiaK0tg8k0kg/bkZ4OJbx+a4q9n/L38w9Q8xeRX85+YtKT&#xA;y1prxvdW8ck7XDfU4k5G4kYxQ8Q1Cyjj9mh74qw3TPz08863ZT+Z9A8g3Wp+SIbj6vFPHN/uTuUB&#xA;Ia4t7TgeaIw4lQxNe+zcVWXeffzc0fyj+iLI2F3qfmTXuI0ry/bKouWJpUyljxiVSaEknetKgEhV&#xA;jtn+f1xp3nWz8pefvK8/lK81MqumXhuo761lLnigaWNIwtW+HblxP2qDfFU782/n/wDlP5Vu7ix1&#xA;TXUOo2rNHNY20ctxKsi7MjemrIrCn7TDFXwD5o1SHVvM2r6rCpSHUL24uo0b7QWaVpAD70bFX3D+&#xA;Tn5zfljN+W3l2yufMdhp19pmnWljeWt/cR2siy20KwtQTMnJSUqCtdsVY1+cH/OVvlLS9IvNJ8lX&#xA;R1XXp42ij1GEEWtsWFDIJDT1XXqvAFa9TtQqvB/+cdfyv1rzj5/0zUfqzjy/o91HeajfOp9ItAwk&#xA;SBWOzPI4AIHRanFX3frWuaPoenS6lrF7DYafAKy3Vw6xxrXYCrU3PYd8VfAn/ORPnbQ/OP5o6hq2&#xA;hym40yOKG1huaFRKYUozqGAPHkSB40rir7E/ITzxoPmj8tNDTT7tZr7SbG1sdVtiQJop4IViJdOv&#xA;GQoWRuhHuDRV6FLLFFE8srrHFGpaSRiFVVUVJJOwAGKvj7/nMT8wvKXmK58v6NoWoQ6nPphuZr6a&#xA;1dZYUMojVEEiVVm/dtyAO2Kss/5w98++TrLyXeeWr3Uraw1s6jLcpbXDrC08csUSq0ZfiHasZUqC&#xA;WFPDFUJ/zml5O803w0bzLaRyXWgabDJBeRxgsLaSRw3ruB0WQcVLdAVFeoxV5f5M/wCcqfzQ8q6D&#xA;aaJALDUrOxjENq2oRSySpEuyJzilhJCDZa9tsVZXYf8AObfnlCP0hoGmXArv9XNxBtX/AC5J+2Kv&#xA;Tvy6/wCcuvJfmfU4NJ1uxk8u3tywjgnklWe0ZyaBWm4xNGWPTknHxbFWYfnv588paD+XfmXTdS1O&#xA;3i1TUdLurSy071FNzI91C8MZEIPPhybdqUGKvkf/AJxr82+X/K35qWepa9drY6e9vPbG5cEoryqA&#xA;nMgHitf2jsO+Kvvq31CwubJb62uYp7J1MiXUbq8RQdWDqSpHvXFXxL/zl55v0TzB+YtlBo95HfQ6&#xA;VYLb3E0DiSITtLJIyKy1UlVK8qHrt2xV75/zjV+YnkfUfy/0DytYajGuv2Fqy3OlyVjm5I5aRkBA&#xA;Dg8uXwk7dehxVB/85haJqWp/lLHNZQNOul6nBfXgQFikCwzws9B2Vplr4DfFXhP/ADjx+f8Ap35a&#xA;walpWt2FxeaRfyC5jlsxG08c4QIRwkaJWV1Vf2xSneuKvoH8vfz81z8xfNkFn5X8qTQ+V4GY6rru&#xA;oScOChDxSNIw8fqluPw+o23gN8VezYq+TP8AnNTyIYr/AEjzvax/urlf0ZqRFB+9QNJbufEsnNSf&#xA;8lcVZz/zh55KGjfl1P5hnj43nmK4Lxsev1S2JiiH0yeo3uCMVRf513k2j/m7+WPmDVZxb+VLa5ur&#xA;ee4kIWGG7nj4o0pNAvJaUYnYKx2xV5J/zktrHk6L8wrXWfK+qfWhqlsLTzoulyCSKS3EkfBJJIzw&#xA;LzRoQVLfsLir2X81vNGg+cf+cffMs/kS+hvoIbSHnFbGjQwRyxyTRyRbNHS3R/hYDbFU5/Ivz15U&#xA;1P8AKby60F7bWrabZQWF9bvKiNFPboIW5BiKeoy81r1rirHfNAstK/5yp8sapq/wWmqaFLYaPcy7&#xA;RrfJLKWjVjsCY5aDxL074ql//OXmn2+saB5V0SyUS+ab7WY49IiT+99N4nWYjuE5mLkfGmKvUNe/&#xA;KP8ALPX9QfUdX8t2N3fyby3JiCySHxkZOJc+7b4ql3/Kgfya/wCpTsf+Bb/mrFURF+SH5QxoEXyj&#xA;pZC9C1ujn6WYEnFUVbflH+VdtT0fKGjAq3JXawtnYHxDMhOKsptrW2tYEt7WJILeMUjhiUIijwVV&#xA;oBiqC8weW9B8xaa+ma7YQalYSEM1vcoJF5Dowr9lhXYjfFWI/wDKgfya/wCpTsf+Bb/mrFU/8q/l&#xA;/wCSvKfrny5o1rpjXNPrEkCAO4XoGc1biOwrTFU+miimieGVBJFIpSRGFVZWFCCD2IxV57c/848/&#xA;kvcvyk8qWinc/ujLEN/aN1GKonTfyL/KLTbm3urPytZJcWrrJBKytIVdDVW/eM1SD44qwX/nI3/n&#xA;IFvIYTy1odvFdeYL6AyTy3A5w20MlVWsZ2kd6GitsBuQa0xVk35Z/kb5B8v+W7R7zRrLU9avIluN&#xA;Sv7q2hlLTSgO6xIylIowxoqIAKYqy26/Lf8AL27t/q1z5Y0qWAV4xtZW5Ar14/BsfcYq+V/+crPy&#xA;Y8qeTodM8x+WYP0fbahO1peacpZohJwMiSRciStQrBl6dKU3xV7H+WH5Z/l550/L3y/5m8x+XrW/&#xA;1zULKI399MrGSaSIej6jnluzCMEnvirKP+VA/k1/1Kdj/wAC3/NWKsptvKflq18vP5ctdNgttDkh&#xA;e3k0+FBHE0UilZFISleYJ5Hqe+KsW/5UD+TX/Up2P/At/wA1YqmXl38pvy38t6mmqaH5es7HUY1Z&#xA;I7qNKuocUbiWJ41G1R2xVljojoyOoZGBDKRUEHYgg4qwub8lPylmvvr0nlLTGuCeR/0ZBGSe5iA9&#xA;M9e64qzC0s7Szto7WzgjtraIcYoIVWONR4KqgAYqq4q8B/5y31pbvQNC8g6eouNf8yajCbe3rusa&#xA;NwVjTpzmdVWvYN4Yq9s8s6FaeX/LumaHaf7zaZaw2kR7kQoE5H3alTiql5r8peXvNmiT6Jr9ml9p&#xA;txQvExKkMpqro6kMjDsVOKpN5U/KT8vfK/l660DS9GgbTb+n6RS5H1hrmnT1jLy5Adl6DsBiqa+V&#xA;vJPlTyrp0uneXtMg06ynkaWeGIEh3YUJcsWLbbbnYbYqkulfkt+Vek64uuad5as7fU0f1YpgrFY3&#xA;rXlHGxMaEduKinbFU385+RPKnnTSv0X5k09L+0VvUiqWSSOSlOcciFXQ/I798VSryh+UXkfyrqP6&#xA;V0+0luNXEfopqd/PLeXCRUp6cbTM3prTb4ANtjirM8VdirsVdirsVdirsVdirsVdirsVfGH/ADmH&#xA;5D1uz89DzekDzaLqkEMcl0qkpDcQKIvTkI+zyVVZSeu47Yqy/wDJL/nK3y7beX7Ly756eSyudPjW&#xA;3ttYVHmilijHGMTLGGkVwtBUKQeppir1DV/+cmPyW02zNz/iFL1+PKO2tIppZXPXiBwCqf8AXZcV&#xA;eIeZ4/zO/wCcjPMNj+jNJl0PyLYsxtr28BWMhjR5i3SaUgUVI6hehO5bFX1Z5Z8v2Hlzy9p2g6eC&#xA;LPTLeO2hLfaKxqF5N/lN1PviqZ4q7FXYq7FXYq7FXYq+RPzN/wCcrPzK0T8wNZ0bSrWxtdP0i7ns&#xA;o4pommeUQuUEsj81+3TkAtKDbfrirLfyD8qebfPPmw/nF59o0/peh5ctSnpoEoV9dI/2Y1DMI+vJ&#xA;mL+BKr6OxV2KuxV2KuxV2KuxV2KuxV2KuxV2KuxV2KuxV2KuxV2KofUP0f8AUZ/0j6X1D02+tfWO&#xA;Po+nT4vU5/Dxp1rir5+81/8AQl31qT9J/or1eXx/ov65wr7fo34KfLbFU28if9CkfW4f8O/oT65t&#xA;6H1/n6vKgpw/SPxcvlv+OKvck4cF4U4UHGnSnalMVbxV2KuxV2KuxV2KuxV2KvHvM/8A0LH/AMrB&#xA;b/EP6H/xd6q/WPrHLh61BT1/+Pbn0r6m/jir1+P0/TX06enQcONOPGm1KdsVXYq7FXYq7FXYq7FX&#xA;Yq//2Q==</xmpGImg:image>
               </rdf:li>
            </rdf:Alt>
         </xmp:Thumbnails>
         <dc:format>image/svg+xml</dc:format>
         <photoshop:ColorMode>3</photoshop:ColorMode>
         <photoshop:DocumentAncestors>
            <rdf:Bag>
               <rdf:li>535F325E3C6C0ECDED64C1AE3FCC549A</rdf:li>
               <rdf:li>adobe:docid:photoshop:d41e9807-d3cf-f741-9ab2-266b7bea5629</rdf:li>
               <rdf:li>xmp.did:6cc8c92a-a08e-3d47-8a06-cbd4dd289c4e</rdf:li>
               <rdf:li>xmp.did:853b40be-0584-cf42-b0eb-8d2e8e84e78c</rdf:li>
            </rdf:Bag>
         </photoshop:DocumentAncestors>
         <xmpMM:InstanceID>xmp.iid:fd8a1023-72fc-e849-8b56-8206e150722f</xmpMM:InstanceID>
         <xmpMM:DocumentID>xmp.did:fd8a1023-72fc-e849-8b56-8206e150722f</xmpMM:DocumentID>
         <xmpMM:OriginalDocumentID>xmp.did:3ed03a14-1b83-5c46-ae0c-32401c14cf80</xmpMM:OriginalDocumentID>
         <xmpMM:History>
            <rdf:Seq>
               <rdf:li rdf:parseType="Resource">
                  <stEvt:action>created</stEvt:action>
                  <stEvt:instanceID>xmp.iid:3ed03a14-1b83-5c46-ae0c-32401c14cf80</stEvt:instanceID>
                  <stEvt:when>2021-03-31T16:20:16+02:00</stEvt:when>
                  <stEvt:softwareAgent>Adobe Photoshop 22.1 (Windows)</stEvt:softwareAgent>
               </rdf:li>
               <rdf:li rdf:parseType="Resource">
                  <stEvt:action>saved</stEvt:action>
                  <stEvt:instanceID>xmp.iid:5f09083a-f637-6540-b27f-8fc6bb279f99</stEvt:instanceID>
                  <stEvt:when>2021-04-13T15:03:53+02:00</stEvt:when>
                  <stEvt:softwareAgent>Adobe Photoshop 22.1 (Windows)</stEvt:softwareAgent>
                  <stEvt:changed>/</stEvt:changed>
               </rdf:li>
               <rdf:li rdf:parseType="Resource">
                  <stEvt:action>saved</stEvt:action>
                  <stEvt:instanceID>xmp.iid:fd8a1023-72fc-e849-8b56-8206e150722f</stEvt:instanceID>
                  <stEvt:when>2021-04-13T16:08:10+02:00</stEvt:when>
                  <stEvt:softwareAgent>Adobe Illustrator 25.2 (Windows)</stEvt:softwareAgent>
                  <stEvt:changed>/</stEvt:changed>
               </rdf:li>
            </rdf:Seq>
         </xmpMM:History>
         <xmpMM:DerivedFrom rdf:parseType="Resource">
            <stRef:instanceID>xmp.iid:8c75082c-7376-ab4b-ac7d-ac66f26abb5f</stRef:instanceID>
            <stRef:documentID>adobe:docid:photoshop:a3a7863c-bc8b-e440-a0b5-5c27bec27b10</stRef:documentID>
            <stRef:originalDocumentID>xmp.did:3ed03a14-1b83-5c46-ae0c-32401c14cf80</stRef:originalDocumentID>
         </xmpMM:DerivedFrom>
         <tiff:Orientation>1</tiff:Orientation>
         <tiff:XResolution>720000/10000</tiff:XResolution>
         <tiff:YResolution>720000/10000</tiff:YResolution>
         <tiff:ResolutionUnit>2</tiff:ResolutionUnit>
         <exif:ColorSpace>65535</exif:ColorSpace>
         <exif:PixelXDimension>420</exif:PixelXDimension>
         <exif:PixelYDimension>280</exif:PixelYDimension>
         <xmpTPg:MaxPageSize rdf:parseType="Resource">
            <stDim:w>420.000000</stDim:w>
            <stDim:h>280.000000</stDim:h>
            <stDim:unit>Pixels</stDim:unit>
         </xmpTPg:MaxPageSize>
         <xmpTPg:NPages>1</xmpTPg:NPages>
         <xmpTPg:HasVisibleTransparency>False</xmpTPg:HasVisibleTransparency>
         <xmpTPg:HasVisibleOverprint>False</xmpTPg:HasVisibleOverprint>
         <xmpTPg:PlateNames>
            <rdf:Seq>
               <rdf:li>Black</rdf:li>
            </rdf:Seq>
         </xmpTPg:PlateNames>
         <xmpTPg:SwatchGroups>
            <rdf:Seq>
               <rdf:li rdf:parseType="Resource">
                  <xmpG:groupName>Grupo de muestras por defecto</xmpG:groupName>
                  <xmpG:groupType>0</xmpG:groupType>
               </rdf:li>
            </rdf:Seq>
         </xmpTPg:SwatchGroups>
      </rdf:Description>
   </rdf:RDF>
</x:xmpmeta>
                                                                                                    
                                                                                                    
                                                                                                    
                                                                                                    
                                                                                                    
                                                                                                    
                                                                                                    
                                                                                                    
                                                                                                    
                                                                                                    
                                                                                                    
                                                                                                    
                                                                                                    
                                                                                                    
                                                                                                    
                                                                                                    
                                                                                                    
                                                                                                    
                                                                                                    
                                                                                                    
                           
<?xpacket end="w"?>
	</metadata>
<g>
	<path d="M220,87c0.3,10.12,0.6,20.23,0.92,30.35c0.06,1.78,0.17,3.55,0.32,6.58c2.2-1.58,3.6-2.44,4.84-3.49
		c5.11-4.33,10.86-6.21,17.47-4.51c5.01,1.29,8.34,5.14,8.63,10.27c0.41,7.28,0.61,14.56,0.75,21.85c0.04,2.13-0.42,4.28-0.69,6.42
		c-0.53,4.09-1.41,8.28,4.98,8.44c0.87,0.02,1.7,1.59,2.54,2.44c-0.66,0.64-1.31,1.84-1.98,1.85c-7.38,0.13-14.76,0.08-22.76,0.08
		c0.6-1.57,0.78-2.62,1.03-2.63c6.1-0.42,6.2-5.2,6.41-9.34c0.36-7.14,0.32-14.31,0.15-21.46c-0.16-6.43-3.69-9.98-10.14-10.8
		c-6.06-0.77-10.92,1.8-11.69,7.98c-1.21,9.66-1.3,19.48-1.35,29.24c-0.01,1.22,3.01,2.55,4.75,3.65c1.11,0.7,2.43,1.06,3.65,1.57
		c-1.15,0.62-2.29,1.75-3.45,1.77c-7.87,0.16-15.75,0.08-23.62,0.08c-0.12-0.57-0.24-1.14-0.37-1.71c1.28-0.62,2.5-1.6,3.84-1.78
		c3.37-0.46,5.11-2.13,5.14-5.54c0.16-19.13,0.38-38.26,0.37-57.39c0-1.22-1.48-2.73-2.65-3.59c-1.21-0.88-2.88-1.12-5.54-2.06
		c5.96-3.2,10.7-5.74,15.43-8.27C218,87,219,87,220,87z"/>
	<path d="M130,87c0.9,0.69,1.83,1.35,2.7,2.08c3.17,2.64,3.53,5.96,0.95,8.49c-2.81,2.77-6.32,2.83-8.68,0.17
		c-2.42-2.74-1.92-6.86,1.17-9.06c0.89-0.64,1.9-1.12,2.85-1.68C129.33,87,129.67,87,130,87z"/>
	<path d="M4.85,163.46c3.76-0.83,7.52-1.66,11.78-2.6c0.05-0.54,0.26-1.63,0.26-2.72c0.02-19.65-0.12-39.3,0.11-58.95
		c0.05-4.33-1.35-5.5-5.45-5.34c-2.82,0.11-6.4,1.73-8.94-3.06c2.22-0.6,4.1-1.54,5.99-1.56C21.4,89.11,34.2,89.13,47,89.19
		c7.21,0.04,13.14,4.28,15.22,10.68c2.94,9.07,1.02,16.96-5.2,21.48c-1.83,1.33-3.59,2.75-6.01,4.6c2.99,1.87,5.37,3.24,7.64,4.78
		c8.32,5.66,10.33,12.29,7.24,24.7c-1.97,7.89-8.29,10.7-15.4,11.06c-13.6,0.7-27.24,0.72-40.86,0.86c-1.5,0.02-3.02-1.02-4.53-1.56
		C5.01,165.02,4.93,164.24,4.85,163.46z M30.05,145.55c0.01,0,0.03,0,0.04,0c0,3.99,0.14,7.99-0.04,11.98
		c-0.15,3.3,1.54,4.81,4.41,5.66c5.81,1.72,10.83-0.41,15.56-3.34c6.52-4.04,8.59-18.17,3.26-23.66
		c-4.62-4.76-10.56-7.51-17.24-8.02c-3.89-0.3-6.3,1.43-6.04,5.91C30.23,137.88,30.05,141.72,30.05,145.55z M30.07,108.99
		c0.01,0,0.01,0,0.02,0c0,4-0.25,8.02,0.14,11.97c0.13,1.3,1.77,3.31,2.97,3.5c9.76,1.56,18.17-6.78,18.76-18.3
		c0.39-7.51-8.19-14.93-17.01-14.62c-3.09,0.11-4.96,1.56-4.89,4.97C30.13,100.66,30.07,104.83,30.07,108.99z"/>
	<path d="M160.79,167.45c-12.55-8.86-12.5-11.44-1.45-22.03c-0.87-1.09-1.61-2.41-2.7-3.31c-5.56-4.59-5.32-10.45-3.42-16.43
		c1.91-5.99,6.53-9.19,12.63-9.76c4.4-0.42,8.88,0.07,13.32-0.07c3.68-0.12,7.35-0.54,11.02-0.89c0.81-0.08,1.68-0.77,2.38-0.6
		c2.16,0.51,4.35,1.11,6.31,2.1c0.47,0.23,0.31,3.03,0.12,3.07c-2.12,0.43-4.3,0.6-6.47,0.74c-1.35,0.09-2.71,0.01-4.07,0.01
		c0.03,1.53-0.36,3.22,0.17,4.55c5.28,13.3-2.85,20.68-14.54,22.12c-3.78,0.47-7.64,0.62-11.29,1.6c-1.49,0.4-3.53,2.66-3.46,3.96
		c0.08,1.49,2.1,3.87,3.54,4.09c4.69,0.72,9.54,0.35,14.26,0.94c5.12,0.64,10.72,0.82,15.11,3.12c6.87,3.6,8.86,10.73,7.68,18.11
		c-0.95,5.97-5.89,8.52-11.11,10.92c-8.92,4.12-17.89,5.58-27.5,3.22c-5.15-1.27-9.55-3.7-11.21-8.81
		c-1.64-5.03,0.29-9.53,4.52-12.78C156.38,169.99,158.33,168.98,160.79,167.45z M175.37,165.49c-0.02,0.23-0.04,0.46-0.07,0.68
		c-2.65,0-5.34-0.31-7.94,0.06c-7.36,1.06-10.77,9.24-6.78,15.39c6.77,10.42,24.14,8.73,30.57-0.19c3.77-5.23,1.09-12.67-5.07-14.16
		C182.58,166.41,178.95,166.06,175.37,165.49z M181.28,129.68c0.17-6.13-3.84-10.53-9.84-10.82c-5.35-0.25-9.94,5.43-10.15,12.57
		c-0.22,7.15,4.57,13.36,10.31,13.39C177.13,144.85,181.03,138.75,181.28,129.68z"/>
	<path d="M302.1,114.73c7.24,0,13.29-0.08,19.33,0.08c0.92,0.02,1.8,1.18,3.28,2.22c-5.85,4.18-4.07,8.81-1.83,13.85
		c2.4,5.39,4.09,11.1,6.2,16.62c0.35,0.92,1.28,1.63,1.94,2.43c0.66-0.63,1.64-1.14,1.93-1.91c2.74-7.24,5.34-14.54,8.04-21.81
		c1.87-5.04-2.3-6.92-6.21-10.29c7.56,0,13.82,0,20.7,0c-0.54,1.29-0.64,2.31-1.15,2.6c-10.19,5.88-11.86,17.1-16.34,26.43
		c-3.63,7.57-6.52,15.57-8.96,23.62c-2.25,7.44-5.39,14.25-10.58,19.96c-1.91,2.1-4.45,4.07-7.08,4.92
		c-1.98,0.64-5.36,0.17-6.68-1.19c-1.37-1.42-2.06-5.16-1.12-6.69c1.12-1.82,4.45-3.47,6.57-3.21c3.83,0.47,7.45,1.61,9.38-2.8
		c2.39-5.48,6.9-9.97,3.38-17.45c-4.59-9.76-7.29-20.44-10.6-30.79c-1.58-4.96-3.11-9.78-7.77-12.86
		C303.71,117.92,303.34,116.69,302.1,114.73z"/>
	<path d="M299.37,159.16c-0.82,1.12-1.41,2.65-2.51,3.28c-6.39,3.69-12.86,6.86-20.57,3.38c-4.29-1.94-5.11-5.54-5.16-9.4
		c-0.09-7.49,0.24-14.99,0.38-22.48c0.15-8.36,0.14-8.36-7.81-10.94c5.47-6.36,10.78-12.54,16.09-18.72
		c0.55,0.09,1.1,0.17,1.64,0.26c0.19,2.43,0.53,4.85,0.54,7.28c0.02,5.14,0.79,5.84,5.87,4.68c1.77-0.4,3.47-1.3,5.24-1.42
		c1.6-0.11,3.25,0.52,4.88,0.82c-0.58,1.88-0.65,4.88-1.84,5.41c-3.23,1.46-6.91,2.41-10.46,2.55c-3.81,0.15-4.87,1.57-4.81,5.12
		c0.14,7.99-0.07,15.99-0.02,23.99c0.03,5.7,4.18,8.73,9.77,7.17c2.63-0.73,5.19-1.68,7.79-2.54
		C298.7,158.12,299.04,158.64,299.37,159.16z"/>
	<path d="M101,165.78c-0.8,0.42-1.93,1.52-3.1,1.56c-6.14,0.19-12.29,0.23-18.42,0.05c-1.17-0.03-2.3-1.26-3.45-1.94
		c1.09-0.81,2.14-2.24,3.29-2.31c4.35-0.29,5.59-2.83,5.72-6.64c0.22-6.65,0.45-13.31,0.88-19.95c0.37-5.82-0.21-11.07-8.06-13.87
		c4.92-2.7,8.51-4.81,12.28-6.55c0.46-0.21,2.28,1.35,2.69,2.4c0.82,2.08,1.11,4.38,1.62,6.59c0.7,0.47,1.4,0.94,2.09,1.41
		c0.45-1.22,0.55-2.95,1.43-3.57c3.7-2.63,7.47-5.33,11.6-7.11c1.24-0.54,4.81,1.42,5.36,2.94c0.68,1.88-0.11,4.92-1.38,6.63
		c-0.71,0.95-3.95,0.83-5.59,0.13c-5.99-2.58-12.23-0.42-12.82,5.93c-0.84,9.17-0.52,18.5,0.1,27.71
		C95.35,161.32,98.68,163.25,101,165.78z"/>
	<path d="M118.8,164.36c10.21-0.93,7.93-7.96,8-13.8c0.07-6-0.29-12.02,0.12-17.99c0.29-4.26-0.24-7.25-5.16-7.83
		c-0.69-0.08-1.29-0.9-3.1-2.24c4.08-1.24,7.18-2.19,10.28-3.13c8.3-2.52,7.91-2.54,7.39,6.34c-0.35,5.9,0.7,11.87,0.95,17.82
		c0.15,3.66,0.02,7.33-0.09,10.99c-0.24,7.95-0.26,7.95,8.19,10.46c-1.13,1.06-1.9,2.41-2.67,2.41c-7.69-0.06-15.49,0.79-23.08-0.52
		C119.36,166.03,119.08,165.2,118.8,164.36z"/>
	<path d="M366.99,145.94c0.87-0.08,3.01-0.28,5.59-0.52c-2.31,3.4-4.47,5.86-5.77,8.72c-0.88,1.93-1.5,5.02-0.54,6.47
		c1.2,1.83,4.14,2.51,6.53,3.8c-1.63,4.31-4.68,4.46-10.41-0.49c-0.42,0.12-1.1,0.11-1.32,0.42c-2.21,3.04-5.4,5.77-8.7,3.73
		c-2.66-1.65-4.01-5.57-5.66-8.64c-0.47-0.87-0.31-2.42,0.14-3.4c2.78-6.09,5.6-12.06,4.57-19.17c-0.13-0.89,3.36-3.06,5.31-3.25
		c1.6-0.15,4.22,1.38,4.91,2.85c0.86,1.84,1.16,5.31,0.04,6.47c-4.81,4.99-0.6,8.14,1.23,11.85c0.49,0.08,0.97,0.16,1.46,0.24
		C365.16,152.26,365.96,149.5,366.99,145.94z M354.23,148.11c-4.64,3.89-3.34,8.23-3.11,12.12c0.19,3.36,2.92,4.49,5.76,3.66
		c3.01-0.87,4.82-3.16,3.08-6.47C358.36,154.41,356.39,151.6,354.23,148.11z M357.02,144.48c3.09-3.37,3.31-5.97,0.09-8.63
		C352.74,138.82,354.09,141.37,357.02,144.48z"/>
	<path d="M397.89,156.76c-0.79-7.32,5.19-10.83,11.12-10.91c5.68-0.08,10.04,4.63,10.04,10.66c0,6.86-5.26,12.39-11.69,12.3
		C401.8,168.72,397.76,163.58,397.89,156.76z M401.26,157.01c-0.27,4.82,3.06,9.32,6.94,9.37c3.62,0.05,6.13-2.83,6.45-7.39
		c0.34-4.79-3.35-10.55-6.95-10.84C404.93,147.93,401.5,152.65,401.26,157.01z"/>
	<path d="M392.52,164.14c-4.1,5.09-11.32,4.71-14.05-0.2c-3.77-6.78,0.01-17.09,7.41-18.79c2.26-0.52,5.13,1.46,7.63,2.51
		c0.28,0.12,0.28,2.13-0.15,2.42c-0.62,0.41-1.97,0.37-2.63-0.06c-1.33-0.87-2.41-2.12-3.55-3.18c-6.33,5.12-7.33,8.54-4.46,14.54
		C384.51,165.11,386.36,165.72,392.52,164.14z"/>
</g>
</svg>
