<?xml version="1.0" encoding="utf-8"?>
<!-- Generator: Adobe Illustrator 25.2.0, SVG Export Plug-In . SVG Version: 6.00 Build 0)  -->
<!DOCTYPE svg PUBLIC "-//W3C//DTD SVG 1.1//EN" "http://www.w3.org/Graphics/SVG/1.1/DTD/svg11.dtd" [
	<!ENTITY ns_extend "http://ns.adobe.com/Extensibility/1.0/">
	<!ENTITY ns_ai "http://ns.adobe.com/AdobeIllustrator/10.0/">
	<!ENTITY ns_graphs "http://ns.adobe.com/Graphs/1.0/">
	<!ENTITY ns_vars "http://ns.adobe.com/Variables/1.0/">
	<!ENTITY ns_imrep "http://ns.adobe.com/ImageReplacement/1.0/">
	<!ENTITY ns_sfw "http://ns.adobe.com/SaveForWeb/1.0/">
	<!ENTITY ns_custom "http://ns.adobe.com/GenericCustomNamespace/1.0/">
	<!ENTITY ns_adobe_xpath "http://ns.adobe.com/XPath/1.0/">
]>
<svg version="1.1" id="Capa_1_xA0_Imagen_1_" xmlns:x="&ns_extend;" xmlns:i="&ns_ai;" xmlns:graph="&ns_graphs;"
	 xmlns="http://www.w3.org/2000/svg" xmlns:xlink="http://www.w3.org/1999/xlink" x="0px" y="0px" viewBox="0 0 194.88 122.64"
	 style="enable-background:new 0 0 194.88 122.64;" xml:space="preserve">
<metadata><?xpacket begin="﻿" id="W5M0MpCehiHzreSzNTczkc9d"?>
<x:xmpmeta xmlns:x="adobe:ns:meta/" x:xmptk="Adobe XMP Core 6.0-c004 79.164570, 2020/11/18-15:51:46        ">
   <rdf:RDF xmlns:rdf="http://www.w3.org/1999/02/22-rdf-syntax-ns#">
      <rdf:Description rdf:about=""
            xmlns:xmp="http://ns.adobe.com/xap/1.0/"
            xmlns:xmpGImg="http://ns.adobe.com/xap/1.0/g/img/"
            xmlns:photoshop="http://ns.adobe.com/photoshop/1.0/"
            xmlns:dc="http://purl.org/dc/elements/1.1/"
            xmlns:xmpMM="http://ns.adobe.com/xap/1.0/mm/"
            xmlns:stEvt="http://ns.adobe.com/xap/1.0/sType/ResourceEvent#"
            xmlns:stRef="http://ns.adobe.com/xap/1.0/sType/ResourceRef#"
            xmlns:tiff="http://ns.adobe.com/tiff/1.0/"
            xmlns:exif="http://ns.adobe.com/exif/1.0/"
            xmlns:xmpTPg="http://ns.adobe.com/xap/1.0/t/pg/"
            xmlns:stDim="http://ns.adobe.com/xap/1.0/sType/Dimensions#"
            xmlns:xmpG="http://ns.adobe.com/xap/1.0/g/"
            xmlns:illustrator="http://ns.adobe.com/illustrator/1.0/">
         <xmp:CreatorTool>Adobe Illustrator 25.2 (Windows)</xmp:CreatorTool>
         <xmp:CreateDate>2021-04-07T16:14:57+02:00</xmp:CreateDate>
         <xmp:MetadataDate>2021-04-07T16:14:57+02:00</xmp:MetadataDate>
         <xmp:ModifyDate>2021-04-07T16:14:57+02:00</xmp:ModifyDate>
         <xmp:Thumbnails>
            <rdf:Alt>
               <rdf:li rdf:parseType="Resource">
                  <xmpGImg:width>256</xmpGImg:width>
                  <xmpGImg:height>156</xmpGImg:height>
                  <xmpGImg:format>JPEG</xmpGImg:format>
                  <xmpGImg:image>/9j/4AAQSkZJRgABAgEASABIAAD/7QAsUGhvdG9zaG9wIDMuMAA4QklNA+0AAAAAABAASAAAAAEA&#xA;AQBIAAAAAQAB/+4ADkFkb2JlAGTAAAAAAf/bAIQABgQEBAUEBgUFBgkGBQYJCwgGBggLDAoKCwoK&#xA;DBAMDAwMDAwQDA4PEA8ODBMTFBQTExwbGxscHx8fHx8fHx8fHwEHBwcNDA0YEBAYGhURFRofHx8f&#xA;Hx8fHx8fHx8fHx8fHx8fHx8fHx8fHx8fHx8fHx8fHx8fHx8fHx8fHx8fHx8f/8AAEQgAnAEAAwER&#xA;AAIRAQMRAf/EAaIAAAAHAQEBAQEAAAAAAAAAAAQFAwIGAQAHCAkKCwEAAgIDAQEBAQEAAAAAAAAA&#xA;AQACAwQFBgcICQoLEAACAQMDAgQCBgcDBAIGAnMBAgMRBAAFIRIxQVEGE2EicYEUMpGhBxWxQiPB&#xA;UtHhMxZi8CRygvElQzRTkqKyY3PCNUQnk6OzNhdUZHTD0uIIJoMJChgZhJRFRqS0VtNVKBry4/PE&#xA;1OT0ZXWFlaW1xdXl9WZ2hpamtsbW5vY3R1dnd4eXp7fH1+f3OEhYaHiImKi4yNjo+Ck5SVlpeYmZ&#xA;qbnJ2en5KjpKWmp6ipqqusra6voRAAICAQIDBQUEBQYECAMDbQEAAhEDBCESMUEFURNhIgZxgZEy&#xA;obHwFMHR4SNCFVJicvEzJDRDghaSUyWiY7LCB3PSNeJEgxdUkwgJChgZJjZFGidkdFU38qOzwygp&#xA;0+PzhJSktMTU5PRldYWVpbXF1eX1RlZmdoaWprbG1ub2R1dnd4eXp7fH1+f3OEhYaHiImKi4yNjo&#xA;+DlJWWl5iZmpucnZ6fkqOkpaanqKmqq6ytrq+v/aAAwDAQACEQMRAD8A9U4q7FXYq7FXYq7FXYq7&#xA;FXYq7FXYq7FXYq7FWP8AmP8AMHyP5aqNe12x06Qb+jPOiyn5RV9Q/QuKvPNS/wCcrPyqina20c6j&#xA;5hugCRDptnIxPHr/AH/obe4riqWaL/zmN+Vt5dm21O31LRaEhp7mBZY1p2YW7yyg1/yMVQP5h/8A&#xA;OYnkzSbcQeTYj5h1B61uJVlt7SL581SWQ+ygD/KxV595S1X80vz0uLpNV8+2nl3R4OTXWkWj+hMY&#xA;VHJmFsrRtJEO7yykDFUIn5peWvyX1M6b+WWuyebdMuxXWLO/jrapOgoJbW4i9H4mrRgEZaU+IkCi&#xA;rPfyW/5yh8z+c/Ptr5e8w6dYWVhqSzJYXFqs0bCeJDIEd5ZZEfkqkbAGtMVfSeKuxV2KuxV2KuxV&#xA;2KuxV2KuxV2KuxV2KuxV2KuxV2KuxV2KuxV2KuxV2KsM/M782PKX5daP9f1yctczAix0yGhuLhh/&#xA;KpI4qP2nbYfOgKr47/Mb/nJz8yvN8ssFpdt5f0ZiQljp7lJCv/FtyOMjmnWnFT/LirFvK2q/ldY2&#xA;bX3mXSdT8w64XZvqP1lLOwYE15STIJLlm8accVesaff/AJonym/mUtZ/lV+XcRRwdLtRDeXlSPTE&#xA;KmtzcSP2aSREbr0Gyryf81PzLv8Az/r8epXVvFBHbRLb27COJbmVVABluZYkj9SRyOR2CrWigd1W&#xA;OaL5c8wa5cfVtF0261KeoHpWkMkzCviEDUxV7B5G/wCcaPzNiuIPMOt30HkawsXWf9KXkyCeIKdn&#xA;WNHAXftK6YqmGv6//wA4w+Tb2WXQNDk866yO88jx6VHJ+1xV681ruF4OOwbFXnPnz85vOfnEWltc&#xA;tb6ZpOmzC40zStMhW2gtpFBCuhX95yAPUtt2pirI/LX/ADlT+ceiJHFLqcWsW8dAsepQrKxA/mlj&#xA;9KZvmznFX0r+Rn/ORGnfmXc3Gj3en/ovX7WD6wYlf1IJ4lZUd42IVlKs4qhrsdid6KvYcVdirsVd&#xA;irsVdirsVdirsVdirsVdirsVdirsVdirsVdirsVdiqQefPOWm+TPKOpeZdRq1tp8XMRAgNJIxCRR&#xA;LXu7sFxV8T6T5T8z/nV5iv8AzTrfmfSdLV5uNyb66VZYIBuqwWteXpoNl5MoO+9a4qk/55D8t4fN&#xA;1rYeQjHLpunafb2d7ew09G5u4QyvMtNmLJw5uNmap9yq9L/5xW/Iy08wy/448y2yz6PayFNIsZRV&#xA;LieM0aZwdmjjb4QOjNWv2d1X0r+Zf5X+XPzE0S30bXZLqKztbgXUX1ORY29VY3jUnkkgNFkbtirG&#xA;dL/ID8jPJ1m+pXekWrxWq859Q1iUzooH7TrMfQX/AIAYq87/ADA/5y78saFC+jflzpsV60VUTUJI&#xA;zBYof+KoFCPJT34D/WGKvmjzn+Y3nXzpefWvMurT35UkxQMQkEdf99wpxjX5hanvirG8VdirsVe8&#xA;/wDOGMDSfmxeOCAIdHuHavcGe3Tb6XxV9t4q7FXYq7FXYq7FXYq7FXYq7FXYq7FXYq7FXYq7FXYq&#xA;7FXYq7FXzj/zmzq88HkvQdKQkRX1+80tOhFtEQFP0zV+jFXxziqO0LSzq2t6fpSzR2zahcw2ouJi&#xA;FjjM0gj5uTSiryqcVZHN5+87+XvMlz+hdY1DSl06Z7a0tFmkRYoYHKJC8RPA8QtGDLudzvir6L8i&#xA;f85e2cnkDVbrzTCj+a9IjU20EVIk1ASOsaMvUI6M1ZQBTj8Sj9kKvnb8xvzb87/mDf8A1jX74m1R&#xA;i1rpkFY7SH/Ujqan/KclvfFWGYq7FVexsby/vILGxge5vLl1it7eJS7u7miqqjcknFX0N+Vn/OKF&#xA;h5h+uN5k8xrFdaZP9V1PRtL4yT283EOY5biQNGHAbfgjrWo5VBxV5P5nvvIdhr99p2neV7iOytJp&#xA;LcG/u5lvSY2KlpFQJHG+32eB4++KvoP8i/L35aeRtMX814fMLRaVe2C6Zqemz0uHsrm7ubdlV5Yk&#xA;iai8N+UQ+E8q8eqr6VsL+x1CzhvbC4ju7O4UPBcwOskbqejK6kqR8sVV8VdirsVdirsVdirsVdir&#xA;sVdirsVdirsVdirsVdirsVdirsVeVf8AOTPlHT/MP5R6xPPHW80WP9JWE1aFHh/vB7hoiwI+R6gY&#xA;q+KJNG8gWtnHLN5kub27eMO1pY6eeCOVBMbzXM1vTidiVjYeGKr/ACz+XnmjztqUtv5M0S7vIYqC&#xA;R5HRkjJ/37cFYIlr1AO/zxV6e3/OK/51NYLJeW2nagVUBbOS7H1lQNgqTFVUUA+FTIUHhirDPL35&#xA;VWV35zHlvzHqyeUrparcWmsh4JQzAiP0JVR4Jhy4n42j5/s+OKsP8yeU/MPlvUrjTtYspbWe3coz&#xA;srem4rRXjkpxdH6qw2IxVKMVdirO/wAuPNF15GguvOlja29zrEM8VhpJvEZ4ozKkklzMqqyVdERI&#xA;xv0kJ8MVepeQfzg89Wmqa35z8q6LHrGlatcR3Pm3QIVeS5s7phRriDifVMMtGZWIYLurUorMqnep&#xA;f85CfkbdeYLPzjeeT5v8XWZPA0jDftRsZz9hpUA/dkqSPh+Jd+KrGfzN/P8A1HzxZ6fHqekjSvKU&#xA;RivzZzjnNf3UC1EMbEANAZfhLcaBak1bimKpD/zjH+ZereWvzF0vRp9QePy5rMptbqzkasImlUiC&#xA;RVbZG9bgCwpUdcVfeGKuxV2KuxV2KuxV2KuxV2KuxV2KuxV2KuxV2KuxV2KuxVJfMfnXyj5Zh9bz&#xA;BrFnpi05KtzMkbsP8hCeb/7EHFXzf+eH/OU/ljWPLupeUvKMMl4mpxG1utamUxQpE5Ak9KJh6jlk&#xA;qtWC06iuKsYsPyJ/Kiby3aa+3meeXy80QN/5oNxa28EVyQf9Ej04xT3bzbA8GZTQ7csVfR35FWGi&#xA;aZ5CtdL0KxvYdKtSfT1K/txZyahJIS0lysLMZQh2CmQDagGwxV6Hirz785vye0X8yvLjWkwS21u1&#xA;BbSdUK1aJ+pjem7RPSjDt1G4xV8PDzJ+aX5d6xdaDFq+paJeadMUuNPjuJFhDjcH0gxidWBqpoQQ&#xA;ajFX0L+Tf5s6P+bWm3/kD8wbS1k1u9gkFpqKwxo10ApLGgHFLiL7alaA06AjdV8r69o15omt6ho1&#xA;6ON5ptxLa3AHTnC5RqV7VXbFU5uIUH5ZWMwH7x9avEY+yWlqR/xM4qzP/nFnW73TPzo0aG3YiHU0&#xA;uLO8jqQGjMLSr/wMkSN9GKvoX/nIn897DyE0ejaPZ2975tuofVM8yK6WcRNI3cEfG7UPBK7UqdqA&#xA;qvi7XNd1jXtUn1XWbyW/1G5blPczMWdj0A9gBsANgNhiqBBINRsRir9BP+cbfNmq+Z/yk0m91aZr&#xA;m/tmmspbmQ1eRYHIjZj1LemVBJ3JFTir0/FXYq7FXYq7FXYq7FXYq7FXYq7FXYq7FXYq7FWD+dPz&#xA;r/LPyfFP+l9ct2vIAa6bastxdluyekhPEn/L4j3xV8tee/8AnLLzl5kvJbfTfW0DQKFVgsJUjvpR&#xA;XYveMknpeP7pPap64qw0Jo2sRyyeosk1wC0jKXmlkIYBuW815NtQ8ppLaOvbFWI6voMloPXt6yWR&#xA;+FJiysGZaAhZErE7E78Ynfj0JNDiqdflh+Zuvfl75ki1bTQJ7csov9Nl/up41PQ7Hg61PBxup9iQ&#xA;VX0xd67barp2nefdOj1/8xbi/Mk9vpZnGn6PpZi3aO6SICJHirxPqF+QHImlGKr038qPzRtPO1jP&#xA;HNNaNrln8WoWumma4tbdXYiNDeFBBLIaEn03I8KjfFWfYq+ff+csvyhj8w+XG86aTD/ub0SMm/VB&#xA;8VxYruxNOrQfaB/l5eC4q+OdI1bUNI1W01XTpjb39jMlxazL1WSNgynf3GKvSv8AnIIWmsaxof5g&#xA;6fGsdl5006O6mRPspf2tLa8iH+oyrX3OKsUuf/JWad/23L7/AKhLTFU4/wCce5nh/Ofyo6dTecDX&#xA;weJ0P4Nirf8AzkLcz3H5z+a3mcyMt2I1J7JHEiIv0KoGKvO8Vdir7q/5xC/8k3bf8x13/wASGKva&#xA;sVdirsVdirsVdirsVdirsVdirsVdirsVQ+pajY6Zp9zqN/MttY2cTz3Vw5oqRRqWdj7ADFXy7r3n&#xA;v80Pz61O68v/AJdo2h+TrM8b/U7iRoGm5V4iZ4w7gMBtDHXxfalFXg/5mflR5v8Ay61aOw1+FDHc&#xA;KXs7+3LPbTBdm4OyoeS/tKwBHyIxVhuKovTb5bO4EjQrMmwZWCMeP7XD1FkjDU2DMjU6jfFXo9pr&#xA;2mG1N3DdQW1y6hXvOcgmYqoCg3Un1jUpK/YdbaKCP/KpirDPN2lNYXacrSSxLja3uFSCbj1Vja8p&#xA;JYhxpQyuxf7VcVZd+SX5h2Ggapc+W/Mqi58k+Y+EGrWsryJFHIrBobgmMhgqsoEtOqVqDQDFXtdn&#xA;B518neZ0jhurzULSwk9T9GaVbr5d8qWoNCDdX8oKzLxPJqKzN3cnbFX0doWsafrOk22pafdwX1rO&#xA;p4Xdo4kgdkYo/puK1AdSMVRkkccsbRyKHjcFXRgCrKRQgg9QcVfnR+dvkE+RvzI1XRI0K6ez/W9L&#xA;NNja3FWRRXr6Z5Rk+KnFWQ+RvLXmD8xvyovPKmh2wvte8tarHqNhA0sUTGyv4niuURpmjQBZoY3O&#xA;/fFUbrv5BeftM8g2dl6NveeYFv7i6vdEtbqCa7hgMESx/ulesjkoxKxctqe9FWI/kdLJbfnD5SPG&#xA;j/pOCNlaopzbgfpHLFVX8/v/ACcnmz/mOb/iK4qn35Pf843+afzGsRrLXcWkeXvUaJb2RTNLKyGj&#xA;ejCClQp2LM436V3xVlH52/8AOM/l78vvIR8xWGsXd5dxXMMEsU6RCNllJFVCAMpG3c4q9k/5xC/8&#xA;k3bf8x13/wASGKvasVdirsVdirsVdirsVdirsVdirsVdirsVeX/85Ny3EX5G+aGgJDlLVCV3PB72&#xA;BXHyKE1xV4TqHnT8y/ym/LvyFeeU47aPyrqmnpd3sr24l9bUrkmaVLmQ0Yfu6CPiy1UEb8RRV7L5&#xA;Z8xeSP8AnIP8s7qw1K3EF5HRNQslas1ndAH0riFjQ8TuVNKH4lNd8VfGX5i+QNd8h+arry9rCfvY&#xA;fjtrlQRHcQMT6c0df2Wpv4EEHcYqxnFUZpeqXem3QntZ5rdj8LyW0hhlKHqqyAErXFWRfV11WNbG&#xA;2tYlnIMg0zSIHvLpyu5e4upGkZVI3PB2CnrGuKsVuIWhneJqVQkHi6yD/gkJU/Rir6D8geZLfz7+&#xA;XX6L1OP9Iea/JcarpKXENxqQawlYRiSDTEPpXV1E5SFRKOPEqW6HFXqf/OP3nnUhqlx5T165YX7l&#xA;mtrW+uklvgYkqUFhaRehp8KIprHJJyDUG9Rir3rFXzH/AM5teU0l0fQPNkSfvbWZ9NumA3McymaG&#xA;p8EaN/8AgsVeYfkV5pXyJpV15ht09fW/M903lvRwW4xWrqkUz3U9VfmqyXENE2qA2+KsE836Hq+m&#xA;LpPmqaf0r3XZb24kSMlJLa9s7x4plDAk/aCurA96fs1Kr0rULaOH87vyu8zxxAS+bY9C1TUAoCKb&#xA;64mEF06qK/bdPU9y2KsR/wCcjwB+dvmkAUH1iI7eJtoicVfWv/OLn/kifLP/AEff91C4xVKv+cvf&#xA;/JN3P/Mdaf8AEjirv+cQv/JN23/Mdd/8SGKvasVdirsVdirsVdirsVdirsVdirsVdirsVYb+cuhv&#xA;rn5V+adNjXnNJp80kKDq0kC+sij5tGBirA/yGs9D8/f847WPl7WYlubVFuNNvE6FGjmZ4mU/suiP&#xA;GynxxV8zaNrPmL8j/wA4rqIM036KuGtNQhHwrd2MhDj4a7F4ysiV6NTFX1T+d/kDRfzV/LCLWNJk&#xA;ie/tbf8ASehX7fCHieMSPCzHosqDv0YCvQ4q+CcVdirI9H1TUZ9MOiQteXMMrFm0iyAhilK/Estw&#xA;0YLTcD2ZagdHXFVDVYIEtqXV1awzxj/R9OsEWYAmm8s6tw6Dr6kjA7EDFUZ+WfnGXyf520zXAzrb&#xA;RSelqCRsyM9pMPTnUFSCG9NiVI6MAe2KvYpNWvfJPnL0IbZ9L0z6xygjs5JdGtZoxIfTZnCS6vqy&#xA;HbcUDHoCprir7Fs7qG7tILuHl6NxGssfNWjbi6hhyRwrKaHcMKjFXmv/ADkxpUepfkp5jVgOdqkN&#xA;3Ex/ZaGdGNPmnJfpxV8kflXqPl3y/wCXdZ8xeatLbVNOjlhg0C3VzFIdVoXMsMhDqvoxfFISjCpj&#xA;qDtiqa30H5Zat+WjebIrbVa+X5otItfLc13G0Sy3kk12Z5bpYleRHrJsqRtVQK03xVi/lbzdqes/&#xA;mp5Mv74Jw03UNKtbCziqkUFra3KelBHyLtxG+7FmJJLEkk4qm3/OTcAg/PLzQgNQXtXqfGSygcj/&#xA;AIbFX1d/zi5/5Inyz/0ff91C4xVKv+cvf/JN3P8AzHWn/Ejirv8AnEL/AMk3bf8AMdd/8SGKvasV&#xA;dirsVdirsVdirsVdirsVdirsVdirsVcQGBBFQdiD0IxV8/fkNGfIn5o+dvywuKx2sso1ny+DUK1u&#xA;1AwWv2m9JowafyN4Yq8u/wCcz/LYsPzE07W41pFrNiokbxntG9Nj/wAimixVnv5UXmveUfyt07SP&#xA;zL01Lr8utbjims9ZgmMqWcN8RLHDfonF0hkZ68xVV5cW2OyryX/nJf8AJ/T/ACF5ltL/AECIx+Wd&#xA;ajL2sfJpFhnjp6kQdizFSrK6VPcjtirxrFV6yyKjorsqSACRQSAwBqAR33FcVZBp9lcTWbTWsVtp&#xA;WnMCkmp37hnYdGEZKl3Kn/lmi5gdcVSCdEjmdI5BMikhZVDBWA7gMFah9xir27VvNms2P5d+UNU0&#xA;OzAudXsp4NQlsIktriV9Nf6rKbu5tz9emDx8CeLxLvuXJNFX1l+UVhr9h+XeiW+uosOoC3Rms1ia&#xA;H6shAKQFXeRyyDZmduRPXFWBf85QfmZ5Y0j8v9X8qreR3HmTVYkhj02I85I4i6vJLNxr6aiNTTlu&#xA;TSm1SFXif5l/l03mvRtFu/yvvrTX/LGiaekMOhWbganbu37y4nntSebyzSHk/EctgONBXFWCaLFd&#xA;r+T3nS0liMbWWsaLJMjgq6lkvo2DKfBgNsVY35FnSDzv5encEpFqdm7AdaLcITSuKs9/5ynheP8A&#xA;PPzE7dJVsnT5CxgT9anFX1F/zjDq2jzfkpoMNtcwmSxW5S9iDryic3Urn1FrVeXLlv2NcVeff85V&#xA;/mp5P1jyjJ5N0G7GsauLiO6vTZfvobaG35M7SSpVK1oKA7b8qd1Wf/8AOK2kXOnfkto7XClHvpLm&#xA;7RDsRHJMyof9kqBh7HFXreKuxV2KuxV2KuxV2KuxV2KuxV2KuxV2KuxV47/zkF5X1m2TSvzP8rID&#xA;5m8ms0ssdCwuNOavrxOBuQisx2I+Fn70xV82fnl+fUH5o6botsNC/RdxpbyySTm49fkZlVWRPgjo&#xA;tUrv7Yq+j/8AnHvUNN89fkHbaHqH76OCG40LUo+4QAhAP+jeVKHxxVhtxomo+dPyF8y+RdVHr+bv&#xA;y6uHhgcj45FsgWtpEHUia15xL49cVfIeKuxVF6bNEl/A9xafpFFYAWbNIokPRUJjKyUr2Ug+BGKq&#xA;2uRXK37yT2UWnNL8S2ENQIV6BSjvJKv/AD0PI9cVZ9/i6G3/ACH0jSraSP8ATUfmK8aBGSOWVLdb&#xA;aBy6cgxjrLKvFhvUGh2xV7R+T3lT/nJfzBpKp5h816hoHlicFi1ysc2rzK/X0ZZ0e4gHgzuCOqqc&#xA;Ve9+T/y/8qeUbGS10WxWN7glr28lJmurl23Z553q8hJ33NPADFWIedf+cb/yy8zTG+gsm0DWQece&#xA;paSwtmD9QzRAekTXcniG/wArFXkf5naF578veU9Q8p+fnbWPKl7JC9l5/s4PUu7eWA0hGqRCskiU&#xA;+HkWLCuzOfhxV4R5d8sX2n/mF5ZtLtVntrzU7MWt3bN6lvcxm5RS0Ei/a60I+0p2YA7Yq9U/5ya/&#xA;Lfz3rH5y3NzpGhXuo22pW9qbWe1gkljJjiEThpFHBCrIa8jsKHFWA3/kLyr5JlMXnzUHu9djAZvK&#xA;ujujSRkgMFvb5g8UPusSyN8sVZx+WHkvzv8Amm66dY2MflH8sVkU6itghiW6EbVETTyFp7yU0+1I&#xA;zInWg2Uqvs/T7Cz06wtrCxhW3srSJILaBBRUjjUKir7BRTFVfFXYq7FXYq7FXYq7FXYq7FXYq7FX&#xA;Yq7FXYq0yqylWAZWFGU7gg9jir4U/wCck/yUk8ieYjrOkQH/AAnq0ha2Cj4bSdqs1sadF6tF/k7f&#xA;s1Kqc/8AOHn5hR6J50ufKt7JwsvMSr9ULH4VvYASg32Hqxll92CjFXvdxGnl3/nI61kQcLTz3o0s&#xA;UyU2kv8ASSHDk96Wp40xV8Yfmz5T/wAJ/mP5g0FU4QWt27WigUAtpqTQf8kpFxViWKqkM88Dl4ZG&#xA;icqVLIxU8WFGFR2I2OKs6/LT8kfP35gzq2kWRg0oNxm1i6rHbLQ/EFalZGH8qA+9MVfYP5V/845+&#xA;Q/IQivTF+mfMKbnVrtB+7b/l3h+JYvnu3+VTbFXquKuxV2KrZoYponhmRZIpFKSRuAysrChVgdiC&#xA;MVeF+avyP1/yrrQ82flGYIp1l+sXflK8CtYzP0523qELC9OlGWg+yyj4Sqhv8Tf85Y+aQdOsvLmn&#xA;eUUI9O41a5cOyt0LRAvOaeFIm+eKq3kP/nEfybpF1+lPNt3J5p1Z2MsizAx2vqMeTMycmeU1O5dq&#xA;HuuKvdba2t7W3jtraJILeFQkUMahERVFAqqtAAPAYqqYq7FXYq7FXYq7FXYq7FXjX/OQH5rfmZ+X&#xA;6W195c0G0vNBEStf6ve85EjmeQxrD6cU0Lqfsnkag126HFXn2n/n3/zk9f6Pb63ZeRLO80q5X1IZ&#xA;7exvpDIlT8Sqt0zUPE0PHFXq/wCRX51Q/mbpN+Z7H9G61pDxpf2qsXjKzBvTkjLAMKmNgVPSnU1x&#xA;V6ZNNDChkmkWOMdXchRv7nFWoLm3uFLQSpKoNCyMGAPhtiqpir5w8zfmX+a/5k+dNZ8qflPc2+ma&#xA;Z5f+C/1iVlV55A5jPBykvFCykJwWp48uVCBirIvyh0D/AJyR0jzYY/PGq2+o+WWik9YvJHNJ6tP3&#xA;ZhZUSUb9eXw8a7Vpir1bzZoXl/X/AC/eaN5gjjl0q/QwzpKQo33VlY/ZdSOSkbgiuKvgP80Py01/&#xA;8sPNsbW9w02niYXGha5Adm9NuSAuvwrPEQOS/SNiMVeyea/z00zWvKv5e/mKAkmueWdYFtr2lowS&#xA;UG4tn9Vo1J2jmSAlDQivw12OKvGfzu/MrTvzE87nzDYaa2mQ/VorYxyOHklMRY+q/EAA8WC0Fdl6&#xA;4qlXkn8svOPnKSVtGsj9QtVZ77VrgiCyt0QcnaW4f4BxXcgVanbFWTeSfJ2o32ty2/kPy6vna7sj&#xA;SbVb+LhpqOOhjhleGKhp8JuXPMb+mpxV6Xrv59f85G/l5PZ6V5m8uaZA10ALBHtyyMqUUxwvZXAh&#xA;PHkvw7kbYq+t4TIYkMoCylQXUGoDU3APzxVRj1LTpLj6vHdQvcdfRWRS9N/2Qa9jiqIxV2KoRNX0&#xA;l9QbTkvYG1BF5PZiVDMF8THXlT6MVReKqF9qFhp9s91f3MVpax/bnndY41+bOQBiqrFNFNEksLrJ&#xA;FIAySIQysp3BBGxGKoa+1jSNPZFv763tGkBKLPKkZYDqRzIriqKR0kRZI2Do4DI6moIO4IIxVb60&#xA;Pq+j6i+sF5GOo5ca0rTrTFUNb61o9zdNaW1/bzXS15W8cqPIOPWqAk7YqjMVQF75g0GwuFtr7UrW&#xA;1uHpwhnnjjc1BIorMCdgcVR4IYAg1B3BHQjFXEhQSTQDck9AMVQkOr6TNcfVob2CS4pX0UlRnoe/&#xA;EGuKvAf+c1dd+r+RtE0ONqTapqBmKDq8VpEQwp/xknjOKvPb/wD5yh896B5b0vybpPlmPyxeWNnB&#xA;ZJc6gXeUKiCNJVjmSBErxrWTkMVe5fkL+VDflv5c1LU9c1CK51vWit5q92r/ALiKOJWdVEjUDcfU&#xA;dnfYGvgK4q+dPzBvvyE1Lzzqupav5m8y+YI7y6mnT9FwWywwiR+Xoxy3kgLIn2VKx0oBiqb/APOM&#xA;Mmnj89ruHyZNqC+VGsJpJotS9MXLwokaj11gJiqtzIOJHb5nFXt//OQ35U+XfNugzeYtb1S9s4fL&#xA;Vhd3MdtbvH6LlEMlSro/xnhx269MVeE/kV/zjVpH5h+TJ/MOrapdWDNePb2cVssZUxxKhd25gkks&#xA;zKKdKd8VfUfkPyN5T/K7yZJptlcNDpls0t7qGoXsgqzlR6ksjfCigJGo2AFB41OKvj/zLN+QFx5m&#xA;v7nWPMvmrzGJp5ZEurGC1RQHYkKJL2Tm1NhX0wDiqe/844eV/LPmzz15t8uxQ3V55AubB5FtdR4i&#xA;cOs8a2srmE8EuEVpKOnbl44qzW+/5wd0t793sfN08FgWqlvNZJNKF8DMs0Kk+/p4qy3yn/ziB+V2&#xA;jSpcaq13r86b+ndOIreo6H0oQjH5M5GKqX/OVmsW/lT8nY9C0WKPT4NWuorBba2RYkS2VWmkCKgA&#xA;AJjVTTs2Kso8vXXlP8m/yW0q41RWgtLW2t3vvQTnLNe3QUyELUVZnY9Tso60GKsSP/OS35G+adZ0&#xA;e1vNJvb29hvIzpclzZRSCG4kIjWRf3jEU5dh79QMVSz/AJyk1X8tLrUdN0/zD5r1K0uLGOT615f0&#xA;eNZ3kWbiVaXm8UMbUG3MkkHYU3xV84eZ5vyvtxps/wCXc3mOPW4p1aWXVfqiAFaGNrc2jc1cSeP3&#xA;4q/QLXfLknmHyfcaBqV5PayX9qLe8vLFhFKGIHqGNmDgcjUdDtir4j0H8o/MOofnPrPlX8v9Rmtl&#xA;0GaeCbW5pTFJDEtbacs8IVizszoFUbjrtU4q988l/wDOJWj+WfNWleZV8y3t1f6bOl06mNEWWRd3&#xA;BNWYK+9RU7HrirE/+cxvy/0S1tY/PMuo3susX1xBp1vp8kiNbRxrE7sY04c1FI6kcvtNXviqF8i/&#xA;84p+Z/M/lmxufPXmK6s4Ft0/Q2kQt6/1aJgGHMSH04yQfsIPma1GKsu8/azc/kN+VOleT/LF3Lqe&#xA;vatc3EGkXFwiloldg8rpGo4syNMoRT+01dwKYqgtG/5w+stW09tS8++YtSvfNN8vqXUtvLGUilbc&#xA;qzzJM8xXoTVR4djiqVf8473HmbyZ+b/mL8qbnUH1DRraKeSBl+zFJGUdJkUlvS5xyUdRUcqdaYq8&#xA;8H5LjzF/zkHrPknQtXuTY2LPcahrN2wluhHwT6yWK+nzczT+l79TiqZ/nT+UOkflT5h8mzeSdSvm&#xA;13ULh/R+tPGzLLA8IidTFHFxDPLQg1r9+KvWf+cqfzn1byZptn5a8uzm11vV42muL5P7y3tASg9I&#xA;/svK4IDfshTTehCrwWy0z/nHO40hpNd80+YLnzLcLznvo7ZfQE7CpPpyK8kg5HctIC3+Tir1P/nD&#xA;DzlrVxc655RuLiS80ixiW80535FYf3npuicvsrJyDBexBPc4qwz8/wDzFeXH51XOmfmCdWi8k2zK&#xA;LKx01kQtAIwVmhWasMjPJ9tjv2qKUxVKNM/LD8rfOnmvSbD8u/NU1o1zLW803XVMN4iKQ7NaSwx+&#xA;jK4UNRCwbYbkVIVZJ+ac356+cfP+la7c+QLyGz8uXCvpumCGWeNgkqyt600e0nqGMAmOgp08cVev&#xA;ef8A8t/Mf5s/lDa3HmHR4dG/MC1WS5sLZHBCsHIEDuSeKzxgHiW+FqVOxGKsBs9H/PzX/wAg9b8m&#xA;6nok9tdaQbWHTnkYxXV7ZxOTJbhTUSekqLxYEclovxHqqknkLVPzZ8v+VE8uaH+TyDVVDJPrd/YT&#xA;AzFiTzk9dYwxA/4s4jwptiqL/Ivyt+dvlD8zpLy+8n/u9fkEWr38wSKK2t2mEs7wmBvRXsVQDenF&#xA;QMVZj/zkB5o/O3UTrPkzQPJU8vl69iSH9LxRvcyzRkhpCnpMY4w1OPFhypvtXZViX5d+df8AnIjy&#xA;T5U0/wAraX+W7zWtmZOE9xa3QkdppWlZpGDovV6V8MVem/8AOQ/lr8w/Nv5M2Nvptkf02JLS813R&#xA;7VubMFhb1oYqH96I52Vgv7XGo36qvKPKesfm/p/lC28teXPyfhs76OIQ3WrX2nygztt+9cXQiUyE&#xA;gMebstf2QNsVTT/nG7yx+cXkrzvdWepeUjDpmuup1bVLjiggS3WVh6LRt6fxPL9kKa9qDfFX1Zir&#xA;sVeTf85I/lVq35heSYYNE4trWlXH1q1t5GCLMpQpJEGaiqxqCpbbam1a4q8vs/zo/wCcgNK0uHy3&#xA;r35azaxLFGLZpHsrtxcJGoFWEayxSmn2im3tiqafkl+WHnm+/Ni5/Mrzd5etfLtsLcpp2mRIsISb&#xA;0ktkMduC7RqsKtUtQ8jsPBV5ro3lv82/Inn7Wr3Ufy9k86arcyOIdUurK5vLf1HkLG4ikjDRfvK7&#xA;8viXpVfiBVd5q8qf85AeYfM+l+bNS8iRxtp8sc0Gn2VrHDC3pSiUrNGkhuDzIoS7Vp0xV9A+dfzD&#xA;/OzR/KHl+80jyOt/5gv4i+swRl7iG0kp8MYjhcSkt1JrxX7NScVeFflpe/n/AOQtU13VLLyDdahf&#xA;eYJElvJbu0uqqyvI54cGX7TTEmtegxV9Ofln5m/MHWvJ9xqvnDy8NI1lZpfqmlwng80CRo0ZImc+&#xA;m7yF1o7DpU0GKvmf83rr8/8A8xrjT4NV8g3VpY6RPLJDa21vcSCQuVB9WUsyvRUoCgHUnuKKvV/I&#xA;/wCav/OQmseadO07WPICabo80yrf3rw3EHowV+N1aaTiSo6Chriq/wD5yo/LXWPM2jaP5h0KaOPV&#xA;vL0shWGWWOD1I5ijVjeUqnqRvCCqkitT3oCqxDSf+cgP+chtZ0ddL0vyI8+t0EL60LecQBvs+oUY&#xA;LArbVqZOFe1NsVZV+W35Z+cPy28teZfPWp23+JfzI1aJpHs1lQBFZxI6NMxUMS/7yXid+IVPdV59&#xA;/wA43S/mhN+Zuo+az5eS70zzRPN+mNZZuEMAaVppfq7hmVqSfDwo3QCq7nFVH81F/PDzD+bmn+Y1&#xA;8iXRg8s3MY0i09J54JFgnMySSyxNwYuaFuDcRSnY1VZL/wA5Bflf+YvmU+VPzAsNGiu9fsbG3i1z&#xA;y+oS6WOSNzcBVhfktxGJJXR0+Lan2hU4qkNprHn2/iEVr/zj7o0VzspludF9GPlTc8ZkhoP9nir2&#xA;v8p9L86aZ5D1W71Tylo3lzzLM08llpWjQQ2qShIq2/r+m8icjISoq2y0rvXFXg/lrzz/AM5AeVdL&#xA;utI80eRb7zbaXVw00b6taXV2Ukk2dFkCyqytSoX5064qmP5fflJ5+84fmrpfnnVvK1t5F0fTJ7e7&#xA;azt4TZmaS1b1FC2rEuGkYASMVUcfFuqr62xV2KuxV2Kvjr83rD849K/NvTvLVp+YGoT3fmmZZLKG&#xA;2ubmyhtoZ5zDFzhhfgqrxavAfsk9cVTTWvys/ODTNO165X84bm7ufLtnJf6lYQahftPHGkTyqHQS&#xA;koXETcajFWd/84ua3rQ/K7UvNXnPXbm4t572QxX2rXckkcVrboichJcOQgMpcGnhiqa3v/OWP5LW&#xA;141sup3FyqNxNxDazGKtaGhYKxA8QPlir07y55l0HzLo8GsaFex6hptyCYriImhINCrAgMrA9VYA&#xA;jFXzZ/zkV/zkRpt3a6boPkDzLNb3C3rnWtRs1uIGiWGiqgl4xl0ZmZj6dQePgd1Xq9j/AM5L/kle&#xA;XdvZW/mX1Lm5kSGFWs75OTyMFUFmt1UVJ6mgxV6Jq+saVo+nT6nqt3FY6fbLznup3EcaDpuzeJ2H&#xA;jirymT/nLH8lUvvqo1S4eMNwN2tpN6P+tuoen+xxV6ro2s6TrWmW+qaTdxX2nXS87e6gYOjDpsR3&#xA;B2I6g7HFWAedv+civyq8oahJpmoao13qULFbi0sIzcNEw2KyOKRqwOxXlyHcYqhLf/nKP8j5bNLm&#xA;TzCbcuaGCS0vDKp/yljif7waYqn+vfnZ+V2g6Vpeq6pr8UNjrMZm0yRIp5mljFKuI4o3kUVNPiUb&#xA;7Yqlb/8AOSH5LLor6uvmWKS2SRoRCIrhblpFVWIW3eNZitHHx8ePvscVT38ufzU8n/mFYXN55buJ&#xA;JBZOsd3DPE0UkZcEpUGqkMFNOJOKsf1r/nJT8l9IupLS48wrNcwuY5EtYLicBlJB/eRxmM7js2Kp&#xA;95B/NvyD59a6j8s6l9bnswGuLeSOSGVUbYOFlVeS12qOnfFXeefzd/LzyLPb23mfV1sbq6Rpbe2W&#xA;KaeRkU05FYEk4AnZS9Ad6dDir5E/xX5H/NLzJq+ufmp5vvNCto5AmgaRawTTrHCxNaGOGeNeKhQ2&#xA;3J23xV7z/wA48flV5J8vPc+dPKXme81jRdTt3tUSeFrWI+lLVpHWRY2YoUKqeIpVvHFUq/Mz8z/y&#xA;R836pb6brH5hT2/lqyZ11PQtPtL4JfSq23q3kMTc4RTZU2PUN0IVe6+W7DQ7DQrG10G1js9IWFWs&#xA;reKMxKsbjmDwIVgW5VPIVr13xVK/Of5l+RfJSwHzPq8Wmm5DNbxsskkjqlORWOJZHoK+GKsPsP8A&#xA;nKL8lL3UIbKPXWjeeQRxzTW1zFFUmgLO8YCqfFqAd6Yq9WxV2KuxV2KuxV2KuxV2Kvj7z9oHmj8z&#xA;P+cmdY07yvqn6Lu/L9qog1IPJG0ItY0WQI8PxqxuLgrsf6Yqzr/nFP8ALvzjod55u1vzjaXVvqd9&#xA;NHaA3xYyTmNne4mLOT6qu7rSTcNvQnFUq/Pq4uPOn5yeVvykF4dM8usI7i/9OiepK4eSgB+GqxR8&#xA;Ytvtt0OKvWbn8kfyYsfKtzp1z5c0630uKBjcX0iKLhERSTK14/74FRU8ue2KvKv+cKBeLp/nKOOS&#xA;SXQkvLYae7jirS8ZRMwXsxjEPL6MVY/5r8heTfMP/OVth5TtNHt7bRbOBJdZtbVfSjldYHvGaT0+&#xA;P2/UjQ0xV9FWH5Rflfp97BfWXlXTILu2dZbedLWIMkimquppsyncHFXhv5smb8zP+cidL/LDUL17&#xA;Py3pKLPcwRtxaeZrX625WvVzGyxqf2RyI74q9T82/k1+S1p5F1C3vNA0/TdNs7SVzqSRIl1CEQkS&#xA;i5P75mBA+055dDXFXzx+WfnPzP5S/wCcafN2oWEskBudUjsdKuAaejJcRoLmSM9QRH0I6NuN64q9&#xA;h/IL8jPy9tPy90nWtU0uz13VtctY724ub6KO6SNbhQ6wxJIGROCnixpyLVqabBV5P5X/AC28kav/&#xA;AM5V6loWm2cN35R0l5buaxNZIOUUCK8VD1SO9l48TtQcemKvbf8AnJDRvJ1l+UeraldaNYy3enWi&#xA;WOjSNBHztvXdIEWA0+AIG5KF2FMVYF/zj3/zjd5LvPKGn+bfNdsdVvdViM1tp8xK20MLFlRuKkGR&#xA;nT4qsaCuwqK4q9Y1Y/lf+S3lXUtettOi0qzmaNZLe0B9S6nHL0YkDNu27ewFSdhir5z029836v62&#xA;veUfyR0WXR7xnmhl1Gymvi6sxPJGmlhRhv8A7rjp4dMVTv8A5w/tbjVPzL84eZjaQafGlr6EljZJ&#xA;6VrE97ciURxJV+KL9VYKK7DFXrP/ADkzpPlNfyv1vX9U0q1u9Vs7cW2m3ksatNE91IsAKPTl8Pql&#xA;wOxFeuKsc/5x+/JXyBfflPompeYfL9nqGqagZbyS4uI+b8DMwhWp/Z9JVPHpvir3e00+xs7GKwtL&#xA;eO3sYIxDDaxqFiSNRxCKgFAoG1MVfKH/ADkh5F8mJ+Yvkjyn5c0a00271y556kbSNYi6XM8cEWyU&#xA;CqvGQ7bYq+tVVVUKoCqooqjYADsMVfLv5ufmdonnTzsvl7yj5Dh88a1oXqxHUbpJpbdCGpKqxQNH&#xA;6kSsKc5HC8vsjepVeR/mdF5xvtU0Ty1rfkXRfJ+o3E4WyOlWQtJJxK4hHqMss3qKH6HFX33bQLb2&#xA;8UCklYkVFJ6kKKb4qqYq7FXYq7FXYq7FUm846b5g1PyzqFh5f1NdH1e5iKWuotH6vpEncharQlag&#xA;N+z1oaYq+a9L/wCcX/zx0rVrzWNN872tpquoFjfX0U92s0xd+beo4j5Nyfc174q+ivy90DzDoHlK&#xA;y0vzDrD69q8PM3OpSVq5d2cLViWIQNxBPhirz/8APH/nH8+f7+y8xaFqX6H81aeixxXDcxFKkbF4&#xA;6vH8cbxsxKuoPy6UVYVJ+Qn/ADkF5qhTSPPPnyL/AA8rATQ2sks0kqoajknpWyvXsZGNOtNsVe9+&#xA;SfJXl/yX5ctfL+hQehY2wqWY1klkb7csrbcnc9T9AoABirxT8xP+cf8A8y3/ADI1Dz5+XnmKGwvd&#xA;SX9/FcPJFKnKNY5ER1SdXRuAYcuPHt0GKr/Kf/OPX5oXPmDT9b/MDz7c336NuY7uHTrSe4mjZ4nD&#xA;qOc/pLGCR8QWLp3xVOPzp/5x5vPOHmK384+U9XGiea4FRXkdpEjlMQpFIJYuUkUij4ahTUU2FN1W&#xA;Kv8A84+fnj5xMFl+Y3nlH0GFlMlnZu8ryBDsShit4uXg78iPDtir1zzB+TflHU/yxf8ALy0i/R2k&#xA;rGos5YxzeKZG9RZzUjmxfd6n4qncVxV4fB+SP5++VdDudIX8wrLSPJcCu8tz9Znj9KEkl+AMIaPx&#xA;KrKF361xVv8A5wm8uSC880+Yipa2Ah06zuiCPUJYzTAV8AIifniqe/mj+QH50eddZ1Ay+dreby/c&#xA;XBmtNLlNzBDGvVENvGJY6x9AxJJ69TiqF0f8gf8AnIawis7CL8yfqel2qpDHFbz3bCKGMBVWOMrG&#xA;vwqKAVGKvTvzx/KSf8yPJdvo0GoC01GxuEu7W4mUmKR1jaNllC7qGDk1UGh7Yq8sT8gf+cir3y9F&#xA;5d1Tz/bQaLbwi3htLWS4cGFQFWORhDbuycdqMxxVkf5I/wDOPXnL8ufMz6hN5qSXR5o2F5pVrGwS&#xA;4kAKxGT1KgcORYMvxduhOKpb+aP5C/nZ541fUFn86Wsvl2a5aax0uT14Yo4+RMSNDEjIxjBpyJJP&#xA;XFVLy1+QH572BsbG4/MmSy0S0EcS29hNcsyQR0X04ldY0WiCi129sVes/mn5c/MTXPLcOmeSNdi0&#xA;O8Mi/XL2bmJWhUfZjljVijFqciF38R3VeD3X/OLn53Xevw+YbrztbT65bcfq+pST3jzxha8QjmMl&#xA;QOR2Hjir2j8n/Iv5keWIr9vOnm2TzE9zx+rWxLSRw8a8n9WZRKS23wiijfYnoq8gs/8AnGD84vK2&#xA;uajJ5E8422n6Vfni8jzXMFy0QZigkSOKVGZAxo4cHr0riqlP/wA4hfmJPqcGuT+eluNeikWYX0y3&#xA;LzJJE3KN1nZ2kLKwqDQUOKvp7RLK+sdHsrO/vn1K+t4UjudQkRI2nkVQGkKIAq8jvQfjiqNxV2Ku&#xA;xV2KuxV2KuxV2KuxV2KuxV2KuxV2KuxV2Ksb/Mr1P+Vf+YfT+u+p+j7jh+jK/XOXpmno0/axV8Da&#xA;d/yp79LQ/pf/ABD9U9UfXOH1T1aV+Lr38e+KvvT8sf8AAv8AgjTP8C+l/hr0z9U9Hl1r8fqc/j9T&#xA;lXnz+KvXFWU4q7FXYq7FXYq7FXYq7FXYq7FXYq7FXYq7FXYq7FX/2Q==</xmpGImg:image>
               </rdf:li>
            </rdf:Alt>
         </xmp:Thumbnails>
         <photoshop:ColorMode>3</photoshop:ColorMode>
         <photoshop:ICCProfile>sRGB IEC61966-2.1</photoshop:ICCProfile>
         <photoshop:DocumentAncestors>
            <rdf:Bag>
               <rdf:li>xmp.did:9d43f3be-6272-f241-90a1-05e8c46b08fe</rdf:li>
            </rdf:Bag>
         </photoshop:DocumentAncestors>
         <dc:format>image/svg+xml</dc:format>
         <xmpMM:InstanceID>xmp.iid:49f7393e-86f3-a442-805a-6af9411d461e</xmpMM:InstanceID>
         <xmpMM:DocumentID>xmp.did:49f7393e-86f3-a442-805a-6af9411d461e</xmpMM:DocumentID>
         <xmpMM:OriginalDocumentID>xmp.did:9d43f3be-6272-f241-90a1-05e8c46b08fe</xmpMM:OriginalDocumentID>
         <xmpMM:History>
            <rdf:Seq>
               <rdf:li rdf:parseType="Resource">
                  <stEvt:action>created</stEvt:action>
                  <stEvt:instanceID>xmp.iid:9d43f3be-6272-f241-90a1-05e8c46b08fe</stEvt:instanceID>
                  <stEvt:when>2017-02-23T17:51:25+01:00</stEvt:when>
                  <stEvt:softwareAgent>Adobe Photoshop CC 2015 (Windows)</stEvt:softwareAgent>
               </rdf:li>
               <rdf:li rdf:parseType="Resource">
                  <stEvt:action>saved</stEvt:action>
                  <stEvt:instanceID>xmp.iid:cb33ae71-b27d-8d45-8955-695ccec5c3de</stEvt:instanceID>
                  <stEvt:when>2017-02-24T17:29:07+01:00</stEvt:when>
                  <stEvt:softwareAgent>Adobe Photoshop CC 2015 (Windows)</stEvt:softwareAgent>
                  <stEvt:changed>/</stEvt:changed>
               </rdf:li>
               <rdf:li rdf:parseType="Resource">
                  <stEvt:action>saved</stEvt:action>
                  <stEvt:instanceID>xmp.iid:da384589-9894-ae46-beca-21c0823c8694</stEvt:instanceID>
                  <stEvt:when>2017-03-26T20:50:04+02:00</stEvt:when>
                  <stEvt:softwareAgent>Adobe Photoshop CC 2015 (Windows)</stEvt:softwareAgent>
                  <stEvt:changed>/</stEvt:changed>
               </rdf:li>
               <rdf:li rdf:parseType="Resource">
                  <stEvt:action>converted</stEvt:action>
                  <stEvt:parameters>from application/vnd.adobe.photoshop to image/png</stEvt:parameters>
               </rdf:li>
               <rdf:li rdf:parseType="Resource">
                  <stEvt:action>derived</stEvt:action>
                  <stEvt:parameters>converted from application/vnd.adobe.photoshop to image/png</stEvt:parameters>
               </rdf:li>
               <rdf:li rdf:parseType="Resource">
                  <stEvt:action>saved</stEvt:action>
                  <stEvt:instanceID>xmp.iid:cd3947ca-1954-7841-b336-0e843253f904</stEvt:instanceID>
                  <stEvt:when>2017-03-26T20:50:04+02:00</stEvt:when>
                  <stEvt:softwareAgent>Adobe Photoshop CC 2015 (Windows)</stEvt:softwareAgent>
                  <stEvt:changed>/</stEvt:changed>
               </rdf:li>
               <rdf:li rdf:parseType="Resource">
                  <stEvt:action>saved</stEvt:action>
                  <stEvt:instanceID>xmp.iid:5165f351-fb00-b340-b589-ffd9c5bfd614</stEvt:instanceID>
                  <stEvt:when>2021-04-07T14:35:33+02:00</stEvt:when>
                  <stEvt:softwareAgent>Adobe Photoshop 22.1 (Windows)</stEvt:softwareAgent>
                  <stEvt:changed>/</stEvt:changed>
               </rdf:li>
               <rdf:li rdf:parseType="Resource">
                  <stEvt:action>converted</stEvt:action>
                  <stEvt:parameters>from image/png to application/vnd.adobe.photoshop</stEvt:parameters>
               </rdf:li>
               <rdf:li rdf:parseType="Resource">
                  <stEvt:action>derived</stEvt:action>
                  <stEvt:parameters>converted from image/png to application/vnd.adobe.photoshop</stEvt:parameters>
               </rdf:li>
               <rdf:li rdf:parseType="Resource">
                  <stEvt:action>saved</stEvt:action>
                  <stEvt:instanceID>xmp.iid:540282b1-5cb4-2e4d-916a-19af7e9eac94</stEvt:instanceID>
                  <stEvt:when>2021-04-07T14:35:33+02:00</stEvt:when>
                  <stEvt:softwareAgent>Adobe Photoshop 22.1 (Windows)</stEvt:softwareAgent>
                  <stEvt:changed>/</stEvt:changed>
               </rdf:li>
               <rdf:li rdf:parseType="Resource">
                  <stEvt:action>saved</stEvt:action>
                  <stEvt:instanceID>xmp.iid:49f7393e-86f3-a442-805a-6af9411d461e</stEvt:instanceID>
                  <stEvt:when>2021-04-07T16:14:57+02:00</stEvt:when>
                  <stEvt:softwareAgent>Adobe Illustrator 25.2 (Windows)</stEvt:softwareAgent>
                  <stEvt:changed>/</stEvt:changed>
               </rdf:li>
            </rdf:Seq>
         </xmpMM:History>
         <xmpMM:DerivedFrom rdf:parseType="Resource">
            <stRef:instanceID>xmp.iid:253e4e4b-7990-3d44-8bc6-326b195f785a</stRef:instanceID>
            <stRef:documentID>xmp.did:253e4e4b-7990-3d44-8bc6-326b195f785a</stRef:documentID>
            <stRef:originalDocumentID>xmp.did:9d43f3be-6272-f241-90a1-05e8c46b08fe</stRef:originalDocumentID>
            <stRef:renditionClass>default</stRef:renditionClass>
         </xmpMM:DerivedFrom>
         <xmpMM:RenditionClass>default</xmpMM:RenditionClass>
         <tiff:Orientation>1</tiff:Orientation>
         <tiff:XResolution>3000000/10000</tiff:XResolution>
         <tiff:YResolution>3000000/10000</tiff:YResolution>
         <tiff:ResolutionUnit>2</tiff:ResolutionUnit>
         <exif:ColorSpace>1</exif:ColorSpace>
         <exif:PixelXDimension>812</exif:PixelXDimension>
         <exif:PixelYDimension>511</exif:PixelYDimension>
         <xmpTPg:MaxPageSize rdf:parseType="Resource">
            <stDim:w>194.880000</stDim:w>
            <stDim:h>122.640000</stDim:h>
            <stDim:unit>Pixels</stDim:unit>
         </xmpTPg:MaxPageSize>
         <xmpTPg:NPages>1</xmpTPg:NPages>
         <xmpTPg:HasVisibleTransparency>False</xmpTPg:HasVisibleTransparency>
         <xmpTPg:HasVisibleOverprint>False</xmpTPg:HasVisibleOverprint>
         <xmpTPg:PlateNames>
            <rdf:Seq>
               <rdf:li>Black</rdf:li>
            </rdf:Seq>
         </xmpTPg:PlateNames>
         <xmpTPg:SwatchGroups>
            <rdf:Seq>
               <rdf:li rdf:parseType="Resource">
                  <xmpG:groupName>Grupo de muestras por defecto</xmpG:groupName>
                  <xmpG:groupType>0</xmpG:groupType>
               </rdf:li>
            </rdf:Seq>
         </xmpTPg:SwatchGroups>
         <illustrator:CreatorSubTool>Adobe Illustrator</illustrator:CreatorSubTool>
      </rdf:Description>
   </rdf:RDF>
</x:xmpmeta>
                                                                                                    
                                                                                                    
                                                                                                    
                                                                                                    
                                                                                                    
                                                                                                    
                                                                                                    
                                                                                                    
                                                                                                    
                                                                                                    
                                                                                                    
                                                                                                    
                                                                                                    
                                                                                                    
                                                                                                    
                                                                                                    
                                                                                                    
                                                                                                    
                                                                                                    
                                                                                                    
                           
<?xpacket end="w"?>
	</metadata>
<g>
	<path d="M3.6,96.53c0.75-0.5,1.51-1,2.59-1.72c0.55-2.61,1.19-5.68,1.86-8.84c-0.52-0.05-0.92-0.03-1.28-0.14
		c-0.35-0.11-0.91-0.32-0.93-0.53c-0.04-0.41,0.12-0.97,0.41-1.25c0.3-0.29,0.85-0.46,1.29-0.47c2.24-0.04,4.48-0.07,6.71,0.03
		c0.8,0.04,1.68,0.28,2.37,0.69c2.03,1.21,2.13,3.97,0.22,5.73c-0.66,0.61-1.46,1.07-2.14,1.56c0.66,1.1,1.29,2.2,1.98,3.26
		c0.16,0.25,0.55,0.36,0.8,0.56c0.34,0.27,0.9,0.53,0.93,0.85c0.04,0.37-0.28,0.92-0.62,1.17c-0.99,0.73-2.53,0.26-3.16-0.78
		c-0.71-1.19-1.48-2.36-2.31-3.47c-0.28-0.38-0.8-0.71-1.27-0.79c-1.69-0.32-1.94-0.12-2.31,1.58C8.67,94.37,8.6,94.8,8.5,95.38
		c0.6,0,1.12-0.07,1.61,0.02c0.35,0.07,0.85,0.31,0.92,0.57c0.09,0.35-0.06,0.89-0.31,1.15c-0.3,0.31-0.82,0.55-1.25,0.56
		c-1.56,0.07-3.12,0.06-4.67,0C4.39,97.68,4,97.4,3.6,97.24C3.6,97.01,3.6,96.77,3.6,96.53z M9.62,90c0.9,0,1.69,0.16,2.39-0.04
		c1.08-0.3,2.21-0.69,3.12-1.32c0.92-0.64,0.8-2.05-0.2-2.33c-1.34-0.36-2.81-0.41-4.2-0.3c-0.29,0.03-0.5,1.35-0.71,2.08
		C9.86,88.67,9.77,89.26,9.62,90z"/>
	<path d="M84.72,118.8c-0.17-0.44-0.58-0.98-0.45-1.29c0.17-0.43,0.73-0.89,1.19-0.97c0.93-0.16,1.91-0.08,2.87-0.09
		c2.17-0.02,3.04-0.86,3.21-3.05c-0.98,0.24-1.96,0.59-2.97,0.69c-3.31,0.32-5.57-2.07-5.02-5.34c0.82-4.88,6.22-7.03,9.2-5.46
		c0.2,0.11,0.45,0.19,0.67,0.17c1.14-0.07,2.28-0.25,3.41-0.23c0.44,0.01,0.88,0.46,1.31,0.7c-0.32,0.47-0.62,1.32-0.95,1.33
		c-1.8,0.05-1.73,1.35-1.96,2.53c-0.33,1.68-0.85,3.33-1.05,5.03c-0.36,3.08-1.99,5.02-4.9,5.98
		C87.76,118.8,86.24,118.8,84.72,118.8z M90.06,105.15c-2.12-0.01-4.15,1.95-4.14,4c0.01,1.51,1.12,2.63,2.64,2.67
		c2.1,0.05,4.16-1.89,4.19-3.95C92.78,106.3,91.65,105.16,90.06,105.15z"/>
	<path d="M190.32,88.62c-0.17,0.43-0.31,0.88-0.51,1.3c-0.55,1.12-1.61,1.2-2.3,0.19c-0.78-1.13-3.97-1.41-4.94-0.41
		c-0.52,0.54-0.06,0.8,0.39,0.91c1.01,0.24,2.03,0.41,3.05,0.62c0.39,0.08,0.78,0.15,1.16,0.27c1.14,0.35,2.03,0.98,2.25,2.23
		c0.22,1.29-0.38,2.26-1.4,2.96c-2.18,1.51-4.6,1.64-7.12,1.13c-0.55-0.11-1.16,0-1.7-0.13c-0.4-0.1-1.09-0.48-1.07-0.65
		c0.16-0.99,0.33-2.05,0.82-2.91c0.33-0.58,1.33-0.77,1.65,0.09c0.41,1.08,1.22,1.4,2.12,1.42c1.17,0.03,2.36-0.16,3.52-0.36
		c0.28-0.05,0.7-0.55,0.68-0.8c-0.03-0.28-0.46-0.68-0.77-0.75c-1.01-0.24-2.04-0.38-3.07-0.53c-2.08-0.31-3.08-1.01-3.26-2.29
		c-0.18-1.28,0.8-2.88,2.5-3.41c1.41-0.44,2.95-0.5,4.43-0.59c0.87-0.05,1.77,0.12,2.65,0.27c0.32,0.05,0.61,0.32,0.92,0.49
		C190.32,87.98,190.32,88.3,190.32,88.62z"/>
	<path d="M137.71,28.75c-0.11,0.26-0.25,0.51-0.32,0.78c-0.7,3.09-2.72,4.7-5.78,5.05c-2.75,0.32-5.43,0.05-7.86-1.47
		c-1.75-1.1-2.58-2.69-2.48-4.72c0.02-0.36,0.43-0.7,0.66-1.04c0.3,0.3,0.8,0.57,0.86,0.92c0.13,0.73,0.04,1.49,0.04,2.09
		c0.68,0.38,1.29,0.73,1.9,1.07c0.54-0.01,1.14-0.14,0.94,1.08c0.35-0.25,0.54-0.38,0.8-0.57c0.1,0.26,0.18,0.49,0.29,0.79
		c0.32-0.28,0.63-0.54,1.09-0.93c0.04,0.65,0.06,1.14,0.11,1.96c0.42-0.64,0.69-1.07,1.02-1.58c0.22,0.4,0.4,0.73,0.71,1.27
		c0.07-0.5,0.11-0.78,0.18-1.24c0.37,0.4,0.64,0.68,1.07,1.14c-0.06-0.64-0.09-1.04-0.12-1.44c0.07-0.06,0.15-0.12,0.22-0.19
		c0.31,0.34,0.63,0.69,0.93,1.01c0.07-0.27,0.15-0.59,0.31-1.25c0.38,0.58,0.59,0.9,0.87,1.34c0.09-0.4,0.16-0.72,0.25-1.12
		c0.34,0.2,0.64,0.38,1.2,0.72c-0.29-0.64-0.46-0.99-0.73-1.57c0.59,0.31,0.96,0.5,1.52,0.79c-0.17-0.43-0.29-0.71-0.45-1.11
		c0.37,0.2,0.66,0.37,0.84,0.47c0.21-1.38,0.42-2.71,0.61-3.9c1.26,0.77,2.71,1.68,4.18,2.55c0.83,0.49,1.34,1.1,1.52,2.13
		c0.23,1.37,0.72,2.63,1.86,3.63c1.39,1.21,1.38,3.04,1.4,4.68c0.07,8.26,0.09,16.52,0.01,24.78c-0.04,3.99-1.74,7.19-5.07,9.54
		c-3.34,2.36-7.06,3.88-10.86,5.24c-1.71,0.61-3.38,0.55-5.04-0.76c-2.82-2.22-5.86-4.17-8.84-6.18c-0.75-0.5-1.63-0.81-2.47-1.16
		c-1.72-0.73-3.48-1.36-5.16-2.17c-0.64-0.31-1.05-0.27-1.61,0.06c-5.84,3.47-11.67,6.95-17.55,10.35
		c-2.49,1.44-5.09,2.67-7.63,4.02c-2.08,1.1-4.15,2.22-6.2,3.37c-2.87,1.61-5.95,2.49-9.22,2.74c-1.5,0.11-2.88-0.28-4.03-1.23
		c-1.26-1.04-2.51-2.11-3.6-3.32c-4.47-4.91-8.63-10.06-11.56-16.09c-2.29-4.71-3.57-9.61-3.42-14.88c0.06-2.04,0.83-3.57,2.53-4.73
		c1.24-0.84,2.3-1.95,3.57-2.73c1-0.61,2.19-0.9,3.31-1.31c0.89-0.32,1.93-0.41,2.66-0.94c3.63-2.63,7.72-4.08,12-5.23
		c1.71-0.46,3.31-1.36,4.9-2.17c0.35-0.18,0.64-0.79,0.67-1.22c0.07-1.19,0.07-2.4-0.07-3.58c-0.1-0.8-0.29-1.74-0.79-2.31
		c-0.84-0.96-0.91-1.97-0.83-3.11c0.31-4.33,2.45-7.71,5.6-10.49c4.24-3.73,9.38-5.5,14.83-6.57c1.6-0.32,3.2-0.66,4.81-0.95
		c1.64-0.29,3.21-0.14,4.81,0.46c1.72,0.65,3.52,0.66,5.09-0.65c0.33-0.28,0.73-0.5,1.13-0.65c2.28-0.86,4.56-1.7,6.86-2.52
		c1.7-0.61,2.23-0.41,3.12,1.07c0.5,0.83,2.05,1.45,3.05,1.21c0.46-0.11,0.92-0.29,1.39-0.34c1.66-0.17,2.39,0.23,2.64,1.85
		c0.29,1.86,1.52,2.63,3.08,3.08c1.41,0.41,2.88,0.65,4.31,1.03c0.73,0.19,1.43,0.5,2.11,0.83c1.28,0.62,1.9,1.67,1.85,3.09
		c-0.07,2.11-0.16,4.22-0.23,6.34c-0.02,0.7,0,1.4,0,1.98c-4.41-1.78-8.89-1.69-13.19,0.3c-3.34,1.55-5.01,4.64-5.34,8.16
		c-0.33,3.59-0.15,7.23-0.17,10.85c-0.01,0.84,0.09,1.67,0.09,2.51c0.02,1.92-0.77,2.75-2.72,2.85c-0.4,0.02-0.8,0-1.33,0
		c-0.49-1.84-0.9-3.69-1.49-5.49c-0.96-2.95-2.01-5.88-3.08-8.8c-0.41-1.1-1.23-1.63-2.51-1.63c-1.95,0-3.91-0.17-5.86-0.31
		c-1.41-0.1-2.34-0.84-2.85-2.19c-0.26-0.69-0.68-1.31-1.26-1.89c0,0.65,0,1.3,0,2.11c-0.59,0-1.14,0.15-1.54-0.02
		c-2.56-1.11-5.09-2.31-7.64-3.44c-0.97-0.43-1.24-1.08-1.04-2.11c0.7-3.64,1.55-4.08,5.09-2.52c1.99,0.87,3.31,2.58,4.56,4.66
		c0.03-1.67,0.63-2.61,1.91-3.44c7.95-5.18,16.61-8.87,25.33-12.48c0.57-0.24,1.12-0.55,1.65-0.82c-0.28-1.24-0.83-1.55-1.92-1.09
		c-1.43,0.6-2.92,1.08-4.38,1.61c-2.18,0.79-2.79,0.49-3.67-1.88c1.32-0.61,2.65-1.22,4-1.84c-1.28-1.5-2.18-1.74-3.81-1.05
		c-1.34,0.56-2.68,1.13-4.32,1.83c2.01,1.02,3.86,1.76,4.85,3.91c-1.59,0.66-3.1,1.48-4.72,1.93c-4.45,1.24-8.95,2.33-13.43,3.48
		c-0.04,0.01-0.08,0.02-0.12,0.01c-0.65-0.04-1.31-0.08-1.96-0.12c0.18-0.78,0.14-1.75,0.6-2.31c0.86-1.07,2-1.92,3.04-2.85
		c0.56-0.5,1.15-0.97,1.88-1.59c-1.84-1.04-3.48-1.88-5.51-1.12c-2.72,1.02-5.46,2-8.35,3.06c1.08,0.86,2.11,0.81,3.13,0.45
		c1.96-0.68,3.9-1.43,5.85-2.14c1.25-0.46,1.27-0.44,2.31,0.78c-0.97,0.56-1.88,1.18-2.87,1.63c-5.31,2.41-8.05,6.96-10.14,12.06
		c-0.4,0.98,0.04,1.57,0.95,1.97c2.34,1.03,4.67,2.07,6.97,3.17c1.29,0.62,2.49,1.46,3.8,2.02c1.3,0.56,2.67,1.13,4.05,1.29
		c2.2,0.25,3.97,1.09,5.35,2.78c2.63,3.21,4.16,6.96,5.36,10.87c0.23,0.76,0.38,1.55,0.63,2.31c0.43,1.32,0.43,2.48-0.46,3.71
		c-0.81,1.12-0.58,2.49,0.12,3.63c0.93,1.52,0.7,2.87-0.3,4.21c-0.67,0.89-1.4,1.75-2.02,2.68c-0.93,1.4-0.65,2.39,0.84,3.1
		c0.65,0.31,1.32,0.62,2.02,0.73c1.97,0.31,3.52,1.39,5.1,2.49c2.91,2.04,5.85,4.03,8.84,5.96c0.48,0.31,1.28,0.36,1.87,0.24
		c1.29-0.25,2.57-0.6,3.79-1.09c0.5-0.2,0.82-0.85,1.22-1.3c0.36-0.4,0.65-0.94,1.09-1.18c2.61-1.39,5.25-2.72,7.89-4.04
		c0.64-0.32,1.17-0.64,1.1-1.66c-0.53,0.22-0.95,0.37-1.36,0.57c-3.42,1.65-6.83,3.31-10.25,4.95c-2.09,1-3.23,0.36-3.29-1.95
		c-0.25-9.49-0.49-18.97-0.64-28.46c-0.04-2.57,0.88-4.87,3.02-6.49c2-1.52,4.1-2.92,6.08-4.46
		C137.7,31.97,138.08,30.47,137.71,28.75z M94.62,71.46c0.53-0.24,1.06-0.52,1.61-0.72c1-0.36,1.89-0.57,2.85,0.36
		c0.4,0.39,1.58,0.37,2.19,0.08c1.59-0.74,3.05-1.73,4.57-2.61c1.05-0.61,1.66-1.52,1.69-2.72c0.03-1.63,0.16-3.29-0.09-4.88
		c-1.59-10.04-6.1-18.57-13.3-25.8c-2.32-2.33-4.84-3.08-7.91-2.52c-2.74,0.5-5.36,1.24-6.02,4.6c-2.47-0.5-4.93-1.24-7.18,1.06
		c6.48,4.01,10.23,10.25,14.1,16.38c3.98,6.3,6.1,13.18,6.05,20.67C94.22,75.23,95.03,72.86,94.62,71.46z M60.68,64.73
		c0.13-0.15,0.25-0.35,0.42-0.49c0.96-0.77,0.99-1.57,0.24-2.55c-0.89-1.18-1.56-2.52-2.49-3.66c-2.02-2.46-4.04-4.94-6.27-7.21
		c-1.6-1.62-3.32-1.46-4.97,0.1c-1.64,1.55-2.64,3.48-2.41,5.76c0.49,4.9,1.7,9.64,3.82,14.11c0.79,1.68,2.21,2.35,4.03,1.96
		c0.32-0.07,0.81-0.63,0.76-0.87c-0.64-2.91-1.29-5.83-2.08-8.7c-0.81-2.95-3.06-4.99-4.87-7.31c-0.26-0.33-0.58-0.98-0.44-1.2
		c0.29-0.45,0.84-0.89,1.35-0.99c0.53-0.1,1.22,0.08,1.7,0.36c0.78,0.47,1.55,1.03,2.13,1.71c2.31,2.75,4.46,5.62,5.92,8.94
		c0.54,1.22,1.37,2.09,2.55,2.73c0.67,0.36,1.33,0.93,1.71,1.57c2.66,4.48,4.1,9.4,4.9,14.51c0.17,1.09,0.62,1.44,1.67,1.22
		c1.38-0.29,1.94-0.8,1.64-1.84c-1.5-5.33-3.13-10.61-5.6-15.6c-0.79-1.59-1.62-2.77-3.61-2.41C60.78,64.89,60.76,64.83,60.68,64.73
		z M141.93,58.06c0-2.71-0.02-5.42,0.01-8.13c0.01-0.89-0.3-1.3-1.23-1.35c-2.5-0.15-4.71,0.71-6.74,2.02
		c-0.42,0.27-0.68,1.08-0.69,1.64c-0.05,5.1-0.01,10.2-0.05,15.29c-0.01,1.17,0.49,1.75,1.58,2.01c2.32,0.54,4.2-0.47,6.06-1.61
		c0.78-0.48,1.09-1.16,1.08-2.11C141.9,63.24,141.93,60.65,141.93,58.06z M65.35,87.18c0.11-0.08,0.22-0.15,0.33-0.23
		c0-0.35,0.05-0.7-0.01-1.04c-0.38-2.44-0.55-4.93-1.23-7.28c-0.83-2.88-2.03-5.67-3.21-8.44c-0.54-1.26-1.54-2.24-2.97-2.6
		c-1.15-0.29-1.79,0.32-1.58,1.47c1.13,6.3,3.66,12.01,7.44,17.16C64.43,86.62,64.94,86.87,65.35,87.18z M75.63,21.17
		c-0.16,0.2-0.32,0.4-0.48,0.6c0.43,0.2,0.87,0.37,1.28,0.6c1.58,0.89,4.53-0.11,5.23-1.78c0.59-1.4-0.06-2.72-1.56-2.93
		C80.05,20.6,77.62,20.6,75.63,21.17z M73.81,32.15c0.02,0.86,0.51,1.16,1.19,1c2.08-0.5,4.14-1.07,6.2-1.62
		c0.08-0.02,0.13-0.17,0.43-0.56C78.86,31.39,76.38,31.76,73.81,32.15z M81.56,56.46c-1.88,0.01-6.74,2.15-7.19,3.12
		C77.12,59.11,79.25,57.56,81.56,56.46z M74.01,46.47c-0.08-0.18-0.17-0.36-0.25-0.55c-2.34,0.94-4.67,1.88-7.01,2.82
		c0.07,0.17,0.14,0.34,0.21,0.51C69.38,48.53,71.81,47.77,74.01,46.47z M75.49,47.66c-0.06-0.18-0.13-0.35-0.19-0.53
		c-2.46,1-4.93,2-7.39,3.01c0.06,0.16,0.12,0.31,0.19,0.47C70.75,50.11,73,48.59,75.49,47.66z M78.83,52.23
		c-2.45,0.68-4.86,1.45-7.03,2.82C74.36,54.64,76.74,53.78,78.83,52.23z M77.71,49.93c-2.65,1.14-5.04,2.16-7.42,3.18
		C72.04,53.45,76.86,51.36,77.71,49.93z M62.47,45.66c1.18,0.49,7.19-2.1,7.53-3.28C67.46,43.49,65.01,44.55,62.47,45.66z
		 M80.56,54.53c-1.2-0.43-7.06,2.16-7.42,3.15C75.71,56.59,78.13,55.56,80.56,54.53z M68.41,42.17c-1.31-0.52-6.85,1.9-7.15,2.91
		C63.72,44.08,66.07,43.12,68.41,42.17z M76.8,63.85c0.07,0.17,0.14,0.35,0.21,0.52c2.42-1.01,4.84-2.02,7.26-3.03
		c-0.09-0.2-0.17-0.4-0.26-0.6C81.6,61.77,79.2,62.81,76.8,63.85z M69.5,51.28c0.04,0.14,0.07,0.27,0.11,0.41
		c2.47-0.49,4.63-1.72,6.83-2.86c-0.06-0.15-0.13-0.3-0.19-0.46C74,49.34,71.75,50.31,69.5,51.28z M66.79,41.07
		c-0.06-0.16-0.12-0.33-0.19-0.49c-2.34,0.93-4.69,1.87-7.03,2.8c0.04,0.11,0.08,0.21,0.12,0.32C62.27,43.4,64.39,41.86,66.79,41.07
		z M72.45,45.29c-0.03-0.13-0.05-0.25-0.08-0.38c-2.5,0.66-4.75,1.9-7.12,2.88c0.07,0.16,0.13,0.32,0.2,0.48
		C67.79,47.27,70.12,46.28,72.45,45.29z M64.53,46.52c1.36,0.29,6.4-1.97,6.82-3C68.99,44.56,66.76,45.54,64.53,46.52z M75.52,61.43
		c0.08,0.15,0.15,0.31,0.23,0.46c2.31-1.06,4.63-2.13,6.94-3.19c-0.07-0.16-0.15-0.32-0.22-0.48C80.16,59.3,77.84,60.36,75.52,61.43
		z M86.42,67.53c-0.06-0.14-0.12-0.27-0.18-0.41c-2.14,0.45-4.04,1.43-5.82,2.66c0.05,0.1,0.09,0.21,0.14,0.31
		C82.52,69.24,84.47,68.38,86.42,67.53z M83.27,72.3c1.44-0.3,3-0.28,3.98-1.69C85.78,70.83,84.27,70.95,83.27,72.3z M79.33,66.46
		c0.06,0.14,0.13,0.28,0.19,0.42c1.83-0.8,3.65-1.59,5.48-2.39c-0.08-0.17-0.15-0.34-0.23-0.51C82.96,64.82,81.14,65.64,79.33,66.46
		z M88.04,74.45c-0.07-0.18-0.15-0.35-0.22-0.53c-1.45,0.6-2.91,1.19-4.36,1.79c0.06,0.16,0.13,0.32,0.19,0.47
		C85.11,75.6,86.57,75.03,88.04,74.45z"/>
	<path d="M117.78,50.35c-0.07-0.81-0.2-1.68-0.2-2.54c0-4.11,0-8.22,0.07-12.33c0.02-1.1,0.16-2.23,0.47-3.28
		c0.44-1.51,1.54-1.86,2.68-0.77c2.09,2,3.89,4.17,3.96,7.34c0.24,9.84,0.58,19.69,0.84,29.53c0.05,1.99-0.07,3.99-0.14,5.98
		c-0.05,1.45-0.7,1.95-1.89,1.2c-1.67-1.07-3.17-2.39-4.71-3.64c-0.2-0.16-0.26-0.57-0.27-0.87c-0.12-2.99-0.25-5.98-0.3-8.97
		c-0.01-0.38,0.48-0.76,0.75-1.13c0.02-0.03,0.07-0.02,0.11-0.04c1.52-0.74,3.51-1.19,3.55-3.27c0.05-2.54-0.72-4.91-2.93-6.5
		C119.29,50.7,118.6,50.62,117.78,50.35z"/>
	<path d="M32.78,107.92c-1.85-0.22-1.85-0.22-2.21,1.46c-0.13,0.62-0.24,1.24-0.39,2.04c0.96,0,1.83-0.02,2.69,0.01
		c0.63,0.01,1.42-0.05,1.46,0.84c0.05,0.9-0.61,1.37-1.43,1.48c-0.75,0.09-1.52,0.03-2.27,0.04c-1.28,0-2.56,0.07-3.83-0.03
		c-0.49-0.04-0.95-0.47-1.43-0.72c0.38-0.49,0.71-1.05,1.17-1.45c0.26-0.22,0.75-0.17,1.24-0.26c0.64-3.04,1.29-6.11,1.97-9.29
		c-0.53-0.06-0.99-0.08-1.45-0.16c-0.98-0.17-1.25-0.89-0.57-1.61c0.28-0.29,0.73-0.59,1.11-0.6c4.07-0.04,8.13-0.03,12.35-0.03
		c-0.3,1.43-0.54,2.75-0.87,4.05c-0.2,0.79-0.81,1.23-1.63,1.04c-0.94-0.21-0.78-0.94-0.61-1.64c0.07-0.31,0.09-0.62,0.17-1.14
		c-1.96,0-3.85-0.02-5.75,0.03c-0.17,0-0.41,0.36-0.47,0.58c-0.22,0.92-0.39,1.85-0.59,2.86c1.03,0.04,2.03,0.54,2.5-0.92
		c0.12-0.37,1.02-0.49,1.56-0.73c0.18,0.47,0.54,0.97,0.49,1.42c-0.1,1.02-0.4,2.03-0.64,3.03c-0.19,0.81-0.69,1.53-1.53,1.35
		c-0.48-0.1-0.82-0.87-1.22-1.33C32.65,108.13,32.72,108.03,32.78,107.92z"/>
	<path d="M86.91,93.29c-0.85,0-1.62,0.1-2.35-0.04c-0.45-0.09-0.82-0.55-1.22-0.84c0.33-0.45,0.64-1.26,1.01-1.29
		c1.87-0.14,3.75-0.15,5.62-0.05c0.78,0.04,1.04,1.16,0.32,1.65c-1.08,0.72-1.07,1.78-1.25,2.8c-0.13,0.77-0.46,1.23-1.23,1.55
		c-2.32,0.96-4.68,1.35-7.13,0.71c-2.7-0.7-3.91-2.36-3.59-5.1c0.3-2.64,0.94-5.16,3.03-7.09c2.49-2.29,5.29-2.95,8.52-1.97
		c0.38,0.11,0.83,0.1,1.23,0.02c1.01-0.2,1.5,0.16,1.34,1.18c-0.13,0.86-0.27,1.76-0.65,2.53c-0.21,0.42-0.88,0.69-1.4,0.83
		c-0.13,0.04-0.62-0.64-0.68-1.03c-0.12-0.81-0.58-1.16-1.28-1.39c-2.88-0.97-6.12,0.72-7.03,3.72c-0.29,0.95-0.47,1.94-0.63,2.92
		c-0.25,1.6,0.48,2.81,2.08,3.11c1.15,0.21,2.38,0.2,3.55,0.05C86.8,95.34,86.85,95.18,86.91,93.29z"/>
	<path d="M165.94,93.61c0.29,1.19,0.97,1.85,1.92,1.92c1.33,0.11,2.69,0,4.03-0.09c0.71-0.05,1.4-0.36,2.11-0.39
		c0.4-0.02,1.11,0.24,1.15,0.47c0.07,0.42-0.18,0.95-0.43,1.35c-0.14,0.23-0.54,0.38-0.84,0.41c-2.17,0.25-4.35,0.73-6.5,0.63
		c-2.85-0.13-4.46-2.69-3.81-5.48c0.92-3.95,5.43-6.57,9.31-5.42c2.53,0.76,3.92,3.52,2.96,6.03c-0.11,0.29-0.72,0.53-1.1,0.54
		C171.87,93.63,169,93.61,165.94,93.61z M173.43,91.21c-0.39-1.36-1.24-2.01-2.67-2.1c-1.8-0.11-3.39,0.72-3.99,2.1
		C168.99,91.21,171.2,91.21,173.43,91.21z"/>
	<path d="M131.39,105.5c-0.77,0-1.32,0.11-1.79-0.03c-0.5-0.15-0.92-0.53-1.38-0.81c0.38-0.46,0.71-1,1.18-1.35
		c0.27-0.2,0.77-0.1,1.17-0.11c0.43-0.01,0.86,0,1.26,0c1.32-4.08,4.94-5.75,8.97-4.15c0.36,0.14,0.77,0.77,0.73,1.13
		c-0.09,0.78-0.68,1.24-1.54,1.17c-1.27-0.1-2.54-0.33-3.8-0.29c-1.31,0.04-1.72,0.67-1.69,2.15c1.19,0,2.39-0.01,3.58,0
		c0.63,0.01,1.53-0.06,1.39,0.82c-0.09,0.53-0.79,1.23-1.33,1.36c-1.03,0.23-2.14,0.16-3.22,0.11c-0.81-0.03-1.22,0.17-1.36,1.05
		c-0.24,1.57-0.63,3.12-1,4.88c1.36,0,2.62-0.02,3.87,0.01c0.66,0.01,1.63-0.04,1.48,0.88c-0.09,0.55-0.92,1.36-1.45,1.38
		c-2.91,0.14-5.83,0.09-8.75,0.05c-0.33,0-0.86-0.3-0.92-0.55c-0.09-0.35,0.07-0.98,0.33-1.14c0.54-0.33,1.23-0.61,1.85-0.59
		c0.96,0.03,1.31-0.29,1.45-1.23C130.65,108.7,131.03,107.21,131.39,105.5z"/>
	<path d="M39.69,95.37c1.38,0,2.61-0.02,3.84,0.01c0.66,0.01,1.54-0.08,1.55,0.87c0.01,0.93-0.7,1.4-1.6,1.45
		c-0.92,0.05-1.84,0.02-2.76,0.02c-1.84,0-3.68,0.05-5.51-0.04c-0.48-0.02-0.93-0.49-1.4-0.75c0.36-0.47,0.67-0.99,1.1-1.39
		c0.19-0.18,0.62-0.21,0.92-0.16c1.15,0.19,1.62-0.28,1.77-1.42c0.19-1.45,0.56-2.87,0.9-4.51c-0.65,0-1.15,0.02-1.65-0.01
		c-0.62-0.03-1.45,0.06-1.48-0.82c-0.03-0.87,0.61-1.37,1.46-1.45c0.71-0.07,1.42-0.01,2.09-0.01c1.42-4.13,4.91-5.75,8.97-4.19
		c0.36,0.14,0.79,0.76,0.75,1.12c-0.08,0.78-0.66,1.25-1.52,1.19c-1.27-0.09-2.54-0.33-3.8-0.3c-1.32,0.04-1.72,0.65-1.72,2.15
		c1.19,0,2.38-0.01,3.57,0.01c0.62,0.01,1.53-0.08,1.4,0.81c-0.08,0.53-0.77,1.25-1.31,1.37c-1.03,0.24-2.14,0.17-3.22,0.11
		c-0.89-0.05-1.26,0.25-1.4,1.15C40.41,92.15,40.03,93.69,39.69,95.37z"/>
	<path d="M30.04,95.28c0.15,0.04,0.22,0.07,0.3,0.08c0.68,0.1,1.64-0.05,1.54,1.02c-0.09,0.89-0.82,1.37-1.72,1.33
		c-1.06-0.05-2.11-0.25-3.17-0.33c-0.3-0.02-0.61,0.16-0.92,0.19c-1.37,0.15-2.78,0.52-4.12,0.38c-2.58-0.27-3.46-2.62-1.84-4.63
		c1.81-2.25,4.32-2.68,7.02-2.49c0.39,0.03,0.78,0.09,1.16,0.14c0.42-1.18,0.14-1.8-1.01-1.8c-1.22,0-2.44,0.25-3.65,0.46
		c-0.69,0.12-1.44,0.38-1.72-0.5c-0.28-0.89,0.26-1.53,1.11-1.65c1.8-0.26,3.63-0.62,5.41-0.5c2.04,0.14,2.87,1.63,2.46,3.69
		c-0.29,1.44-0.6,2.88-0.9,4.32C29.98,95.05,30.01,95.13,30.04,95.28z M27.96,93.45c-2.02-0.44-3.86-0.6-5.53,0.59
		c-0.29,0.21-0.63,0.63-0.6,0.92c0.02,0.25,0.51,0.58,0.84,0.66c1.75,0.41,3.3-0.25,4.78-1.06C27.71,94.41,27.76,93.9,27.96,93.45z"
		/>
	<path d="M101.92,95.25c0.24,0.07,0.28,0.08,0.32,0.09c0.66,0.13,1.56-0.11,1.66,0.94c0.07,0.73-0.84,1.46-1.89,1.42
		c-1.02-0.04-2.03-0.24-3.05-0.33c-0.26-0.02-0.53,0.13-0.81,0.17c-1.25,0.18-2.51,0.46-3.77,0.48c-1.32,0.03-2.42-0.61-2.95-1.87
		c-0.55-1.3,0.15-2.34,0.99-3.22c1.84-1.92,4.2-2.3,6.72-2.11c0.39,0.03,0.78,0.09,1.16,0.13c0.39-1.21,0.11-1.81-1.05-1.8
		c-1.26,0.01-2.52,0.26-3.77,0.49c-0.68,0.12-1.34,0.25-1.59-0.55c-0.24-0.77,0.17-1.44,0.91-1.56c1.83-0.3,3.7-0.7,5.53-0.59
		c2.13,0.13,2.98,1.63,2.55,3.73C102.58,92.19,102.25,93.7,101.92,95.25z M100.13,93.58c-2.24-0.7-4.1-0.59-5.45,0.3
		c-0.38,0.25-0.6,0.75-0.9,1.13c0.43,0.24,0.89,0.73,1.28,0.68c1.32-0.18,2.64-0.49,3.92-0.9C99.39,94.66,99.67,94.09,100.13,93.58z
		"/>
	<path d="M58.72,95.25c0.27,0.07,0.34,0.1,0.42,0.11c0.64,0.09,1.54-0.06,1.54,0.9c-0.01,0.92-0.72,1.45-1.61,1.43
		c-1.1-0.02-2.19-0.24-3.29-0.32c-0.3-0.02-0.61,0.16-0.92,0.2c-1.37,0.15-2.78,0.52-4.12,0.38c-2.58-0.27-3.46-2.62-1.83-4.64
		c1.82-2.25,4.32-2.68,7.02-2.48c0.36,0.03,0.71,0.08,1.07,0.11c0.04,0,0.08-0.02,0.12-0.03c0.4-1.13,0.11-1.75-1.04-1.74
		c-1.26,0.01-2.52,0.26-3.77,0.48c-0.68,0.12-1.35,0.27-1.6-0.53c-0.26-0.83,0.2-1.49,1-1.61c1.83-0.28,3.7-0.65,5.53-0.53
		c2.04,0.13,2.87,1.63,2.45,3.69C59.38,92.17,59.05,93.68,58.72,95.25z M56.72,93.55c-1.88-0.71-4.03-0.55-5.39,0.41
		c-0.33,0.23-0.51,0.65-0.77,0.99c0.37,0.25,0.72,0.65,1.12,0.72c1.66,0.28,3.15-0.32,4.55-1.11C56.5,94.41,56.56,93.9,56.72,93.55z
		"/>
	<path d="M121.22,107c0.33-1.26,0.04-1.81-1.13-1.79c-1.22,0.01-2.44,0.26-3.65,0.48c-0.71,0.13-1.43,0.32-1.67-0.58
		c-0.22-0.85,0.29-1.46,1.08-1.57c1.8-0.26,3.63-0.64,5.41-0.52c2.06,0.13,2.92,1.62,2.52,3.66c-0.29,1.44-0.6,2.88-0.9,4.32
		c-0.02,0.08,0,0.16,0,0.31c0.21,0.04,0.46,0.04,0.65,0.14c0.44,0.25,0.85,0.55,1.27,0.83c-0.34,0.46-0.62,1.24-1.02,1.31
		c-1.2,0.2-2.45,0.14-3.68,0.16c-0.37,0-0.74-0.14-1.1-0.1c-1.38,0.12-2.77,0.52-4.12,0.39c-2.65-0.26-3.53-2.64-1.84-4.69
		c1.84-2.23,4.35-2.63,7.04-2.43C120.46,106.91,120.85,106.96,121.22,107z M121.08,109.52c-2.34-0.47-4.19-0.63-5.84,0.61
		c-0.28,0.21-0.53,0.63-0.53,0.95c0,0.2,0.48,0.49,0.78,0.57c1.57,0.42,3-0.15,4.37-0.81C120.29,110.64,120.55,110.12,121.08,109.52
		z"/>
	<path d="M164.49,107.02c0.26-1.35,0.01-1.84-1.18-1.82c-1.22,0.02-2.45,0.27-3.66,0.49c-0.72,0.14-1.43,0.27-1.64-0.63
		c-0.19-0.78,0.26-1.4,1.01-1.51c1.88-0.26,3.78-0.62,5.65-0.52c1.82,0.1,2.65,1.5,2.38,3.31c-0.12,0.83-0.32,1.64-0.49,2.46
		c-0.16,0.81-0.33,1.63-0.51,2.51c0.24,0.04,0.45,0.03,0.61,0.11c0.46,0.26,0.91,0.56,1.36,0.85c-0.41,0.48-0.79,1.32-1.24,1.36
		c-1.2,0.12-2.43-0.13-3.65-0.19c-0.29-0.02-0.59,0.13-0.88,0.16c-1.38,0.15-2.77,0.52-4.12,0.39c-2.65-0.26-3.54-2.66-1.83-4.71
		c1.82-2.17,4.28-2.61,6.94-2.42C163.64,106.9,164.03,106.96,164.49,107.02z M164.28,109.53c-2.1-0.43-3.82-0.66-5.42,0.38
		c-0.39,0.26-0.64,0.74-0.95,1.12c0.46,0.26,0.95,0.78,1.36,0.73c1.32-0.18,2.64-0.52,3.91-0.94
		C163.56,110.68,163.81,110.1,164.28,109.53z"/>
	<path d="M159.97,95.26c0.29,0.06,0.4,0.09,0.52,0.11c0.61,0.1,1.46,0.01,1.43,0.9c-0.03,0.91-0.72,1.4-1.62,1.44
		c-1.16,0.05-2.32,0.09-3.47-0.01c-0.46-0.04-0.88-0.46-1.32-0.71c0.31-0.46,0.56-1.27,0.93-1.33c1.18-0.18,1.28-0.99,1.45-1.85
		c0.21-1.01,0.42-2.03,0.65-3.03c0.22-0.96-0.24-1.44-1.11-1.62c-1.83-0.39-3.95,1.03-4.31,2.85c-0.21,1.05-0.44,2.1-0.68,3.26
		c0.32,0.05,0.64,0.05,0.9,0.16c0.37,0.16,0.98,0.41,0.98,0.63c0,0.45-0.22,1.07-0.56,1.29c-0.46,0.3-1.12,0.34-1.69,0.38
		c-0.87,0.06-1.77,0.1-2.63-0.02c-0.5-0.07-0.96-0.47-1.43-0.72c0.34-0.48,0.61-1.29,1.04-1.38c0.98-0.2,1.12-0.79,1.26-1.57
		c0.27-1.48,0.61-2.94,0.94-4.47c-0.35-0.05-0.6-0.03-0.8-0.13c-0.41-0.21-0.79-0.48-1.18-0.73c0.35-0.48,0.65-1.32,1.06-1.38
		c1.26-0.16,2.6-0.6,3.83,0.23c0.14,0.09,0.48-0.11,0.73-0.18c0.72-0.2,1.44-0.54,2.17-0.59c3-0.22,4.46,1.53,3.81,4.45
		C160.57,92.54,160.28,93.86,159.97,95.26z"/>
	<path d="M74.79,114.13c-4.66-0.04-6.74-3.6-4.66-7.35c1.45-2.6,4.81-4.35,7.51-3.92c3.7,0.6,5.41,3.92,3.65,7.24
		C79.85,112.82,77.4,113.94,74.79,114.13z M76.34,105.15c-2.24,0-4.53,1.95-4.58,3.89c-0.04,1.53,1.43,2.78,3.26,2.77
		c2.3-0.01,4.47-1.86,4.46-3.8C79.47,106.32,78.18,105.15,76.34,105.15z"/>
	<path d="M45.99,114.13c-4.66-0.05-6.76-3.62-4.64-7.35c1.46-2.56,3.78-3.85,6.68-3.96c4.03-0.15,6.37,3.7,4.46,7.29
		C51.04,112.83,48.59,113.94,45.99,114.13z M47.53,105.15c-2.24,0-4.52,1.96-4.56,3.91c-0.03,1.53,1.45,2.77,3.27,2.76
		c2.3-0.02,4.46-1.87,4.44-3.82C50.66,106.31,49.37,105.15,47.53,105.15z"/>
	<path d="M140.32,98.08c-4.66-0.03-6.75-3.59-4.67-7.34c1.45-2.6,4.8-4.36,7.51-3.93c3.71,0.59,5.41,3.91,3.66,7.23
		C145.38,96.77,142.92,97.88,140.32,98.08z M141.85,89.1c-2.24,0-4.52,1.96-4.57,3.91c-0.03,1.53,1.44,2.77,3.27,2.76
		c2.3-0.02,4.47-1.87,4.44-3.81C144.98,90.27,143.69,89.1,141.85,89.1z"/>
	<path d="M125.66,95.37c1.37,0,2.6-0.02,3.83,0.01c0.65,0.01,1.52-0.12,1.56,0.85c0.03,0.96-0.69,1.44-1.56,1.46
		c-1.91,0.06-3.83,0.03-5.75,0.03c-0.88,0-1.77,0.08-2.63-0.03c-0.46-0.06-0.88-0.47-1.32-0.72c0.31-0.46,0.53-1.17,0.96-1.34
		c0.74-0.3,1.62-0.27,2.54-0.38c0.38-1.83,0.78-3.68,1.22-5.79c-0.6,0-1.12,0.09-1.58-0.03c-0.44-0.11-0.83-0.43-1.24-0.66
		c0.32-0.49,0.55-1.13,1-1.44c0.36-0.26,1-0.16,1.51-0.17c0.99-0.02,1.99-0.01,3.05-0.01c0,0.44,0,0.81,0,1.15
		c1.22-0.49,2.37-1.01,3.56-1.42c1.04-0.36,1.96,0.03,2.75,0.73c0.63,0.56,0.8,1.19,0.15,1.86c-0.57,0.59-1.23,0.82-1.86,0.14
		c-0.59-0.63-1.21-0.55-1.83-0.2c-1.04,0.58-2.06,1.21-3.07,1.84c-0.22,0.14-0.44,0.38-0.5,0.62
		C126.15,92.97,125.93,94.09,125.66,95.37z"/>
	<path d="M108.89,95.24c0.39-1.89,0.77-3.72,1.21-5.79c-0.6,0-1.12,0.09-1.58-0.03c-0.44-0.11-0.83-0.44-1.24-0.67
		c0.29-0.48,0.47-1.11,0.89-1.39c0.42-0.27,1.07-0.2,1.62-0.22c0.99-0.03,1.99-0.01,3.04-0.01c0,0.44,0,0.82,0,1.14
		c1.21-0.49,2.37-1.02,3.57-1.42c1.09-0.36,2.04,0.05,2.84,0.82c0.58,0.56,0.65,1.17,0.06,1.77c-0.53,0.54-1.17,0.84-1.77,0.2
		c-0.66-0.7-1.33-0.63-2.04-0.22c-1,0.57-1.99,1.17-2.96,1.79c-0.22,0.14-0.44,0.38-0.5,0.62c-0.28,1.11-0.49,2.24-0.76,3.51
		c1.37,0,2.6-0.02,3.83,0.01c0.65,0.01,1.52-0.12,1.55,0.86c0.03,0.96-0.69,1.43-1.57,1.46c-1.99,0.06-3.99,0.02-5.99,0.03
		c-0.8,0-1.61,0.09-2.39-0.03c-0.46-0.07-0.88-0.47-1.31-0.73c0.32-0.46,0.54-1.16,0.97-1.33
		C107.09,95.33,107.97,95.36,108.89,95.24z"/>
	<path d="M100.97,111.29c0.39-1.89,0.77-3.72,1.21-5.79c-0.6,0-1.12,0.09-1.58-0.03c-0.44-0.11-0.83-0.44-1.24-0.67
		c0.29-0.48,0.47-1.11,0.89-1.39c0.42-0.27,1.07-0.21,1.62-0.22c0.99-0.03,1.99-0.01,3.04-0.01c0,0.44,0,0.81,0,1.14
		c1.21-0.49,2.37-1.02,3.57-1.42c1.09-0.36,2.04,0.05,2.84,0.82c0.58,0.56,0.65,1.17,0.06,1.77c-0.53,0.54-1.17,0.84-1.77,0.21
		c-0.66-0.7-1.33-0.63-2.04-0.22c-1,0.57-1.99,1.17-2.96,1.79c-0.22,0.14-0.44,0.38-0.5,0.62c-0.28,1.11-0.49,2.24-0.76,3.51
		c1.37,0,2.6-0.02,3.83,0.01c0.65,0.01,1.52-0.12,1.55,0.86c0.03,0.96-0.69,1.44-1.57,1.46c-1.99,0.06-3.99,0.02-5.99,0.03
		c-0.8,0-1.61,0.09-2.39-0.03c-0.46-0.07-0.88-0.47-1.31-0.73c0.32-0.46,0.54-1.16,0.97-1.33
		C99.17,111.38,100.05,111.41,100.97,111.29z"/>
	<path d="M58.55,105.7c-0.79-0.46-2.19,0.25-2.14-1.15c0.05-1.65,1.53-1.25,2.65-1.44c0.16-0.68,0.26-1.39,0.49-2.06
		c0.18-0.5,0.43-1.05,0.82-1.38c0.25-0.22,0.86-0.23,1.19-0.08c0.24,0.11,0.43,0.65,0.4,0.98c-0.07,0.82-0.27,1.63-0.46,2.62
		c1.52,0,2.95-0.01,4.37,0c0.64,0.01,1.39-0.05,1.42,0.87c0.03,0.87-0.53,1.34-1.34,1.38c-1.35,0.07-2.71,0.07-4.07,0.05
		c-0.61-0.01-0.97,0.14-1.09,0.79c-0.24,1.33-0.5,2.66-0.82,3.97c-0.24,1,0.23,1.56,1.13,1.48c1.41-0.12,2.81-0.42,4.2-0.74
		c0.7-0.16,1.45-0.65,1.84,0.3c0.34,0.83-0.25,1.39-0.96,1.67c-2.24,0.91-4.54,1.57-6.97,0.81c-1.45-0.45-2.04-1.47-1.75-2.94
		C57.8,109.14,58.18,107.44,58.55,105.7z"/>
	<path d="M149.87,103.23c-0.57,2.76-1.11,5.39-1.69,8.19c1.16,0,2.2-0.08,3.22,0.04c0.5,0.06,0.95,0.5,1.42,0.77
		c-0.36,0.48-0.67,1.02-1.11,1.41c-0.22,0.19-0.68,0.14-1.04,0.14c-2.67,0.01-5.35,0.01-8.02,0c-0.66,0-1.63,0.1-1.48-0.85
		c0.09-0.55,0.84-1.21,1.44-1.42c0.71-0.25,1.58-0.04,2.37-0.1c0.3-0.02,0.8-0.2,0.85-0.4c0.42-1.76,0.76-3.54,1.16-5.49
		c-0.89,0-1.62,0.1-2.3-0.03c-0.5-0.1-0.93-0.5-1.4-0.77c0.44-0.49,0.85-1.36,1.33-1.41C146.32,103.12,148.03,103.23,149.87,103.23z
		"/>
	<path d="M110.23,66.61c1-1.86,1.83-3.49,2.76-5.06c0.19-0.32,0.74-0.61,1.12-0.61c2.29,0.02,2.91,0.68,3,2.98
		c0.07,1.67,0.13,3.33,0.2,5c0.05,0.98-0.43,1.28-1.25,0.86C114.13,68.77,112.24,67.7,110.23,66.61z"/>
	<path d="M115.43,54.11c-0.96-1.36-0.8-1.8,0.8-2.2c2.46-0.62,4.3,0.53,4.7,3.04c0.17,1.05,0.16,2.14,0.14,3.21
		c-0.01,0.78-0.37,1.33-1.24,1.51c-1.11,0.23-2.19,0.58-3.28,0.88c-0.08-0.1-0.16-0.2-0.24-0.3c0.18-0.5,0.31-1.02,0.54-1.48
		c0.89-1.76,0.51-3.24-1.2-4.4C115.58,54.28,115.5,54.2,115.43,54.11z"/>
	<path d="M134.42,28.6c-1.89,0.01-3.83-0.41-4.44,1.86c-0.92-0.57-1.89-1.1-2.78-1.75c-0.44-0.32-1.01-0.84-1.02-1.28
		c-0.01-0.44,0.52-1,0.96-1.32c1.24-0.92,2.66-0.92,4.11-0.54c0.53,0.14,1.09,0.18,1.77,0.29C132.08,27.49,133.46,27.9,134.42,28.6z
		"/>
	<path d="M115.43,54.11c0.07,0.08,0.15,0.17,0.22,0.25c0.16,1.37,0.46,2.75,0.43,4.11c-0.03,1.34-0.64,1.63-2.08,1.34
		c0.02-0.14-0.02-0.34,0.06-0.43c1.07-1.29,1.19-2.52,0.01-3.85c-0.27-0.3-0.14-0.96-0.2-1.45
		C114.39,54.09,114.91,54.1,115.43,54.11z"/>
	<path d="M111.56,57.14c0.24-0.58,0.33-1.34,0.76-1.71c0.49-0.42,1.29-0.32,1.5,0.5c0.17,0.66,0.24,1.38,0.21,2.07
		c-0.04,0.82-0.64,1.13-1.41,1.09c-0.85-0.04-0.84-0.67-0.85-1.28c0-0.2,0-0.4,0-0.59C111.7,57.19,111.63,57.17,111.56,57.14z"/>
	<path d="M151.12,98.58c-0.23,0.26-0.42,0.57-0.7,0.76c-1.08,0.75-2.17,1.49-3.3,2.16c-0.27,0.16-0.7,0.06-1.06,0.08
		c0.13-0.36,0.15-0.87,0.41-1.06c1.12-0.83,2.29-1.59,3.49-2.3c0.27-0.16,0.72-0.02,1.08-0.02
		C151.07,98.32,151.1,98.45,151.12,98.58z"/>
	<path d="M93.99,69.44c0.17-0.4,0.34-0.8,0.47-1.1c-0.28-0.16-0.59-0.34-0.9-0.52c0.22-0.29,0.37-0.69,0.66-0.86
		c1.33-0.83,2.81-1.24,4.37-1.28c0.08,0.1,0.16,0.19,0.24,0.29c-0.5,0.53-1,1.06-1.53,1.61c0.13,0.07,0.38,0.2,0.72,0.38
		c-0.99,1.36-2.65,0.88-3.76,1.68C94.17,69.56,94.08,69.5,93.99,69.44z"/>
	<path d="M90.25,47.46c-0.66,1.15-3.23,2.15-5.24,2.03C85.38,48,88.62,46.74,90.25,47.46z"/>
	<path d="M82.03,45.28c0.6-1.39,2.69-2.24,5.11-2.18C86.81,44.39,84.53,45.39,82.03,45.28z"/>
	<path d="M91.7,62.88c0.84-1.36,3.31-2.36,5.2-2.19C96.42,62.02,94.2,62.97,91.7,62.88z"/>
	<path d="M88.58,44.86c-0.03,1.04-2.75,2.52-4.74,2.66C84.15,46.15,86.29,44.93,88.58,44.86z"/>
	<path d="M94.92,54.94c-1.47,1.59-3.3,2.06-5.28,2.4C90.12,55.88,92.87,54.63,94.92,54.94z"/>
	<path d="M92.11,64.11c1.69-0.67,3.2-1.28,4.73-1.85c0.16-0.06,0.51,0.09,0.6,0.24c0.09,0.14,0.01,0.58-0.09,0.61
		c-1.58,0.55-3.18,1.05-4.78,1.56C92.55,64.68,92.48,64.56,92.11,64.11z"/>
	<path d="M90.75,59.4c0.29-1.45,2.57-2.67,4.63-2.57C95.3,57.77,94.18,58.4,90.75,59.4z"/>
	<path d="M87.74,53.38c0.32-0.31,0.58-0.74,0.96-0.91c1.01-0.46,2.07-0.82,3.13-1.18c0.22-0.08,0.49,0.01,0.74,0.02
		c-0.1,0.26-0.14,0.68-0.33,0.76c-1.36,0.63-2.75,1.19-4.14,1.77C87.99,53.68,87.87,53.53,87.74,53.38z"/>
	<path d="M91.48,48.89c-0.46,1.59-3.21,2.88-5.13,2.45C87.87,50.01,89.62,49.58,91.48,48.89z"/>
	<path d="M79.73,42.96c0.29-1.13,4.17-2.59,5.35-1.99C83.35,42.01,81.72,42.82,79.73,42.96z"/>
	<path d="M89.1,55.56c-0.07-1.1,2.86-2.64,4.57-2.48C93.52,54.03,92.84,54.41,89.1,55.56z"/>
	<path d="M91.47,61.2c0.11-0.3,0.12-0.77,0.34-0.89c1.41-0.79,2.89-1.44,4.48-1.65c0.08,0.2,0.15,0.4,0.23,0.6
		c-1.59,0.72-3.17,1.44-4.76,2.17C91.66,61.36,91.56,61.28,91.47,61.2z"/>
	<path d="M93.06,66.63c0.06-0.4,0.03-0.65,0.11-0.69c1.42-0.68,2.85-1.34,4.29-1.96c0.11-0.05,0.34,0.21,0.52,0.33
		c-0.14,0.2-0.24,0.5-0.44,0.58C96.12,65.47,94.68,66.01,93.06,66.63z"/>
	<path d="M77.26,40.49c1.29-1.35,3.09-1.62,4.89-2.39C81.73,39.33,78.87,40.73,77.26,40.49z"/>
	<path d="M94.08,70.23c0.9-0.35,1.8-0.71,2.78-1.09C96.83,70.33,95.26,71.06,94.08,70.23z"/>
	<path d="M75.74,38.89c0.44-1.27,1.39-1.08,2.25-1.16c0.04,0.12,0.08,0.25,0.13,0.37C77.32,38.36,76.53,38.62,75.74,38.89z"/>
</g>
</svg>
